<?xml version="1.0" standalone="no"?>
<!DOCTYPE svg PUBLIC "-//W3C//DTD SVG 1.1//EN" "http://www.w3.org/Graphics/SVG/1.1/DTD/svg11.dtd" >
<svg xmlns="http://www.w3.org/2000/svg" xmlns:xlink="http://www.w3.org/1999/xlink" version="1.1">
<metadata></metadata>
<defs>
<font id="nolan_nextbook" horiz-adv-x="1581" >
<font-face units-per-em="2048" ascent="1526" descent="-522" />
<missing-glyph horiz-adv-x="393" />
<glyph horiz-adv-x="0" />
<glyph horiz-adv-x="682" />
<glyph unicode="&#xd;" horiz-adv-x="681" />
<glyph unicode=" "  horiz-adv-x="393" />
<glyph unicode="&#x09;" horiz-adv-x="393" />
<glyph unicode="&#xa0;" horiz-adv-x="393" />
<glyph unicode="!" horiz-adv-x="559" d="M229 0v166h103v-166h-103zM229 1196v250h101v-250l-15 -817h-71z" />
<glyph unicode="&#x22;" horiz-adv-x="763" d="M186 1266v174h88v-174l-12 -359h-63zM518 1266v174h86v-174l-12 -359h-64z" />
<glyph unicode="#" horiz-adv-x="1427" d="M176 459v73h230l77 412h-241v74h256l88 461h80l-88 -461h391l86 461h80l-88 -461h202v-74h-217l-78 -412h232v-73h-244l-88 -459h-78l86 459h-391l-86 -459h-80l88 459h-217zM485 532h392l77 412h-391z" />
<glyph unicode="$" horiz-adv-x="1132" d="M82 137l37 68q195 -147 424 -156v641q-185 53 -269 109q-161 103 -161 303q0 180 115.5 273.5t314.5 101.5v159h75v-159q216 -9 402 -134l-35 -63q-181 108 -367 117v-639q204 -53 295 -117q140 -96 140 -276q0 -174 -112 -280t-323 -116v-157h-75v155q-263 15 -461 170z M199 1102q0 -153 127 -230q69 -49 217 -94v619q-160 -6 -252 -83t-92 -212zM618 49q180 10 264.5 96t84.5 222q0 127 -105 198q-67 55 -244 105v-621z" />
<glyph unicode="%" horiz-adv-x="1591" d="M119 1137q0 158 73.5 258t200.5 100q129 0 204 -99.5t75 -260.5q0 -160 -75 -258.5t-204 -98.5q-126 0 -200 98.5t-74 260.5zM190 1137q0 -131 54 -210t149 -79q97 0 152 78.5t55 210.5t-54.5 209t-152.5 77q-96 0 -149.5 -77t-53.5 -209zM266 0l959 1487h82l-957 -1487 h-84zM920 346q0 158 75 258.5t201 100.5q129 0 203 -99.5t74 -261.5q0 -161 -74 -258.5t-203 -97.5q-127 0 -201.5 99t-74.5 259zM991 346q0 -131 54.5 -209t150.5 -78q97 0 152 77.5t55 209.5q0 131 -55 209t-152 78q-96 0 -150.5 -78t-54.5 -209z" />
<glyph unicode="&#x26;" horiz-adv-x="1323" d="M127 412q0 255 270 399q-69 147 -69 285q0 172 100 278q102 105 236 105q128 0 212.5 -84.5t84.5 -216.5q-7 -92 -42.5 -151t-109.5 -103q-69 -43 -92 -52q-93 -41 -111 -49q-27 -12 -62 -28t-42 -19q66 -133 198 -282q115 -131 277 -275q115 118 197 307l65 -34 q-92 -201 -205 -320q163 -132 178 -143l-47 -62q-163 130 -186 150q-167 -150 -379 -150q-219 0 -344 131q-129 129 -129 314zM213 414q0 -153 104 -260q101 -107 285 -107q178 0 318 119q-154 135 -279 280q-131 147 -209 299q-219 -121 -219 -331zM406 1098 q0 -107 59 -258q9 4 117 53q86 36 120 55q32 16 89 56q94 65 94 174q0 101 -66 165t-160 64q-106 0 -179.5 -86t-73.5 -223z" />
<glyph unicode="'" horiz-adv-x="411" d="M162 1266v174h86v-174l-10 -359h-64z" />
<glyph unicode="(" horiz-adv-x="669" d="M170 614q0 591 365 1047l47 -53q-322 -445 -322 -994q0 -550 322 -995l-47 -53q-365 450 -365 1048z" />
<glyph unicode=")" horiz-adv-x="669" d="M86 -381q324 442 324 993t-324 996l49 53q363 -451 363 -1049q0 -595 -363 -1046z" />
<glyph unicode="*" horiz-adv-x="937" d="M172 983l35 25l207 131l-207 131l-35 22l33 62l37 -25l200 -143l-6 237v47h66v-47l-6 -237l200 143l37 25l33 -62l-35 -22l-209 -131l209 -131l35 -25l-33 -59l-37 24l-200 144l6 -238v-47h-66v47l6 238l-200 -144l-37 -24z" />
<glyph unicode="+" horiz-adv-x="1132" d="M188 676v78h340v350h76v-350h340v-78h-340v-350h-76v350h-340z" />
<glyph unicode="," horiz-adv-x="425" d="M127 -201q68 86 68 201h-37v180h104v-143q0 -177 -94 -281z" />
<glyph unicode="-" horiz-adv-x="937" d="M139 610v78h660v-78h-660z" />
<glyph unicode="." horiz-adv-x="446" d="M172 0v166h102v-166h-102z" />
<glyph unicode="/" horiz-adv-x="890" d="M76 -106l655 1642h86l-657 -1642h-84z" />
<glyph unicode="0" horiz-adv-x="1239" d="M141 717q0 111 16 214t53 199t91.5 166.5t136.5 112.5t183 41q162 0 276 -111q109 -112 156 -270q45 -154 45 -352q0 -422 -201 -623q-112 -112 -276 -112q-101 0 -183 42t-136.5 112.5t-91.5 166t-53 199t-16 215.5zM231 717q0 -383 166 -557q91 -97 224 -97 q195 0 290 189q97 192 97 465q0 386 -166 557q-88 94 -221 94q-129 0 -222 -92.5t-131 -239.5q-37 -142 -37 -319z" />
<glyph unicode="1" horiz-adv-x="817" d="M119 1155l395 268h70v-1423h-86v1317l-344 -232z" />
<glyph unicode="2" horiz-adv-x="1128" d="M133 1305q189 145 393 145q186 0 301 -109q115 -112 115 -278q0 -184 -156 -322q-90 -77 -170 -143q-124 -102 -176 -149q-67 -58 -118 -125q-84 -116 -84 -242h723v-82h-814v66q0 171 105 309q61 82 182 184q38 32 125 98q83 65 123 99q172 138 172 309q0 133 -93 218 t-239 85q-180 0 -344 -129z" />
<glyph unicode="3" horiz-adv-x="1015" d="M82 121l41 69q164 -124 336 -124q149 0 243.5 88t94.5 227q0 141 -97.5 228t-255.5 87h-96v82h103q142 0 233 88q90 90 90 211t-86 207q-90 84 -225 84q-160 0 -299 -133l-51 55q157 160 360 160q184 0 285 -113q102 -114 102 -262q0 -123 -72 -213.5t-182 -124.5 q129 -38 206 -130.5t77 -225.5q0 -168 -115 -283q-113 -116 -311 -116q-210 0 -381 139z" />
<glyph unicode="4" horiz-adv-x="1060" d="M86 393v68l678 962h76v-952h145v-78h-145v-393h-84v393h-670zM182 471h574v807z" />
<glyph unicode="5" horiz-adv-x="1038" d="M86 137l39 70q169 -141 354 -141q162 0 256 110t94 277q0 166 -93 268t-242 102q-171 0 -291 -147l-66 20l72 727h616v-80h-544l-56 -548q118 106 281 106q181 0 295 -123q114 -126 114 -325q0 -208 -118 -338q-121 -133 -316 -133q-209 0 -395 155z" />
<glyph unicode="6" horiz-adv-x="1132" d="M139 666q0 254 66 440q126 344 448 344q173 0 318 -115l-39 -61q-135 102 -283 102q-271 0 -373 -299q-35 -104 -47 -241q-15 -134 -2 -254h4q29 158 133.5 248t247.5 90q167 0 281 -129q115 -133 115 -336q0 -200 -115 -336q-116 -137 -305 -137q-228 0 -338 192 q-111 194 -111 492zM258 440q0 -142 90 -264q88 -119 240 -119q159 0 248 115q88 113 88 277q0 172 -95 284q-95 109 -233 109q-150 0 -244 -117q-94 -116 -94 -285z" />
<glyph unicode="7" horiz-adv-x="921" d="M76 1343v80h796v-80q-198 -262 -340 -667q-142 -407 -176 -676h-90q29 255 172 659q139 395 342 684h-704z" />
<glyph unicode="8" horiz-adv-x="1161" d="M111 381q0 140 82.5 242t224.5 137q-125 35 -194.5 122t-69.5 210q0 160 118 260q119 98 310 98q187 0 305 -100q119 -101 119 -258q0 -122 -70 -209.5t-195 -122.5q143 -35 226.5 -136.5t83.5 -242.5q0 -178 -129 -289q-131 -110 -340 -110q-213 0 -340 112 q-131 110 -131 287zM199 389q0 -148 106 -235q108 -91 275 -91q166 0 274 91q104 88 104 235q0 148 -104 239t-274 91t-275.5 -91t-105.5 -239zM238 1085q0 -130 94 -206q93 -78 248 -78t247.5 77t92.5 207q0 129 -93 208t-247 79q-155 0 -248 -78q-94 -79 -94 -209z" />
<glyph unicode="9" horiz-adv-x="1120" d="M115 979q0 205 118 338q121 133 304 133q105 0 196 -54t144 -151q106 -169 106 -504q0 -360 -122.5 -559.5t-356.5 -199.5q-173 0 -330 104l31 66q151 -95 297 -95q184 0 285 154.5t112 435.5q6 110 -2 199l-4 -2q-32 -154 -131 -243t-238 -89q-180 0 -293 131 q-116 128 -116 336zM199 983q0 -174 92 -283q88 -110 237 -110q147 0 242 115q92 115 92 286q0 158 -94 271q-93 112 -233 112q-148 0 -242 -110t-94 -281z" />
<glyph unicode=":" horiz-adv-x="518" d="M209 0v184h100v-184h-100zM209 797v184h100v-184h-100z" />
<glyph unicode=";" horiz-adv-x="505" d="M152 -219q76 94 79 219h-34v180h102v-143q0 -106 -25 -173.5t-90 -129.5zM197 797v184h102v-184h-102z" />
<glyph unicode="&#x3c;" horiz-adv-x="1134" d="M186 614v80l760 445v-88l-674 -398l674 -393v-90z" />
<glyph unicode="=" horiz-adv-x="1132" d="M188 403v78h758v-78h-758zM188 815v78h758v-78h-758z" />
<glyph unicode="&#x3e;" horiz-adv-x="1134" d="M186 170v90l674 393l-674 398v88l760 -445v-80z" />
<glyph unicode="?" horiz-adv-x="1024" d="M76 1270q77 99 189.5 154t230.5 55q168 0 286 -121q117 -123 117 -297q0 -124 -60.5 -216.5t-185.5 -182.5q-86 -62 -128 -114t-42 -110v-80h-90v78q0 83 47.5 148.5t149.5 136.5q112 81 167.5 160t55.5 182q0 134 -92 237q-91 99 -232 99q-215 0 -356 -185zM387 0v164 h100v-164h-100z" />
<glyph unicode="@" horiz-adv-x="1828" d="M104 512q0 193 70.5 371.5t192.5 306.5q121 127 281 198.5t331 71.5q334 0 545 -211t211 -522q0 -249 -133 -426q-135 -176 -310 -176q-98 0 -147 63.5t-47 167.5q-55 -108 -139 -169.5t-185 -61.5q-122 0 -193 95t-71 249q0 209 123 379q119 168 291 168q182 0 258 -205 l41 168l65 -4l-112 -483q-21 -95 -21 -142q0 -166 143 -166q144 0 256 160q109 160 109 377q0 287 -193 477q-194 191 -495 191q-328 0 -561 -254q-234 -255 -234 -623q0 -365 207 -578t537 -213q338 0 604 224l33 -54q-274 -235 -641 -235q-350 0 -582 229 q-234 231 -234 627zM584 467q0 -129 53.5 -203t150.5 -74t178.5 77t125.5 202q27 72 69 266q-30 107 -89.5 162t-139.5 55q-150 0 -248 -149q-100 -147 -100 -336z" />
<glyph unicode="A" horiz-adv-x="1339" d="M49 0l574 1446h96l571 -1446h-100l-186 483h-670l-191 -483h-94zM365 567h610l-305 787z" />
<glyph unicode="B" horiz-adv-x="1411" d="M207 0v1446h598q438 0 438 -359q0 -126 -64.5 -208.5t-177.5 -112.5q138 -30 218.5 -129.5t80.5 -251.5q0 -203 -116.5 -294t-354.5 -91h-622zM297 84h537q194 0 284 72t90 239q0 161 -100.5 243.5t-282.5 82.5h-528v-637zM297 805h518q159 0 249.5 69t90.5 203 q0 285 -346 285h-512v-557z" />
<glyph unicode="C" horiz-adv-x="1411" d="M143 723q0 339 187 547q185 209 471 209q298 0 497 -211l-55 -60q-181 187 -436 187q-253 0 -412 -187q-159 -188 -159 -485q0 -300 161 -485q159 -187 408 -187q263 0 438 187l53 -60q-96 -102 -226 -156.5t-271 -54.5q-284 0 -469 209q-187 208 -187 547z" />
<glyph unicode="D" horiz-adv-x="1503" d="M207 0v1446h444q338 0 525 -199q186 -198 186 -524t-186 -524q-187 -199 -525 -199h-444zM297 82h358q284 0 451 170q164 170 164 471q0 298 -164 471q-167 170 -451 170h-358v-1282z" />
<glyph unicode="E" horiz-adv-x="1314" d="M207 0v1446h958v-84h-868v-571h795v-84h-795v-623h870v-84h-960z" />
<glyph unicode="F" horiz-adv-x="1255" d="M207 0v1446h938v-84h-848v-576h770v-86h-770v-700h-90z" />
<glyph unicode="G" horiz-adv-x="1536" d="M143 717q0 345 189 555q189 207 479 207q316 0 528 -232l-55 -57q-199 205 -467 205q-254 0 -418 -185q-163 -187 -163 -491q0 -297 157 -483q156 -185 422 -185q268 0 469 162v461h-483v80h569v-586q-254 -201 -561 -201q-300 0 -483 207t-183 543z" />
<glyph unicode="H" horiz-adv-x="1540" d="M207 0v1446h90v-655h948v655h88v-1446h-88v707h-948v-707h-90z" />
<glyph unicode="I" horiz-adv-x="514" d="M211 0v1446h90v-1446h-90z" />
<glyph unicode="J" horiz-adv-x="989" d="M90 100l41 64q148 -115 289 -115q297 0 297 332v1065h90v-1057q0 -422 -383 -422q-180 0 -334 133z" />
<glyph unicode="K" horiz-adv-x="1265" d="M207 0v1446h88v-873l768 873h117l-521 -582l566 -864h-113l-514 801l-303 -344v-457h-88z" />
<glyph unicode="L" horiz-adv-x="1206" d="M207 0v1446h90v-1362h829v-84h-919z" />
<glyph unicode="M" horiz-adv-x="1894" d="M207 0v1446h102l639 -1352l639 1352h101v-1446h-89v1288l-608 -1288h-88l-608 1288v-1288h-88z" />
<glyph unicode="N" horiz-adv-x="1540" d="M207 0v1446h92l944 -1311v1311h90v-1446h-92l-944 1315v-1315h-90z" />
<glyph unicode="O" d="M145 721q0 343 181 551q180 207 465 207q283 0 466 -207q181 -208 181 -551q0 -342 -178 -547q-183 -207 -469 -207q-287 0 -467 207q-179 206 -179 547zM238 721q0 -308 153 -490q149 -180 400 -180q249 0 401 180q154 180 154 490t-154 493q-153 181 -401 181 q-250 0 -400 -181q-153 -182 -153 -493z" />
<glyph unicode="P" horiz-adv-x="1359" d="M207 0v1446h604q218 0 332 -116.5t114 -321.5q0 -210 -114.5 -325.5t-331.5 -115.5h-514v-567h-90zM297 653h524q170 0 258 93t88 262q0 174 -91 264t-255 90h-524v-709z" />
<glyph unicode="Q" horiz-adv-x="1579" d="M145 721q0 346 181 551q180 207 465 207q284 0 466 -209q179 -209 179 -549q0 -303 -146 -502q-146 -195 -391 -233v-4q199 -61 391 -168l-43 -72q-202 113 -469 201l-94 28q-74 22 -109 35q-110 40 -182 103q-248 205 -248 612zM238 721q0 -305 151 -488 q150 -182 402 -182q248 0 401 182q151 183 151 488t-151 491q-151 183 -401 183q-249 0 -400 -183q-153 -184 -153 -491z" />
<glyph unicode="R" horiz-adv-x="1372" d="M207 0v1446h618q205 0 320 -115.5t115 -312.5q0 -386 -357 -420l379 -598h-108l-371 592h-506v-592h-90zM297 676h514q181 0 269.5 81t88.5 261q0 170 -90 257t-258 87h-524v-686z" />
<glyph unicode="S" horiz-adv-x="1236" d="M109 137l38 72q208 -158 465 -158q198 0 313 87t115 224q1 7 1 15q0 79 -70 160q-9 11 -30.5 24t-47 26.5t-33.5 18.5q-4 2 -139 47q-5 1 -15.5 4t-27.5 8t-33 9q-57 15 -74 18q-8 2 -36.5 10t-33.5 9.5t-26 8t-27 9t-22.5 8.5t-27.5 11.5t-26.5 13t-33.5 16.5 q-73 37 -105 72q-40 41 -66 107t-26 141q1 99 42 175t110 121t155 66q78 19 166 19h17q254 0 467 -131l-37 -72q-204 119 -428 119q-172 0 -285 -70q-117 -71 -117 -225q0 -80 50 -158q27 -45 129 -98q19 -12 90 -35q63 -21 92 -27q82 -20 102 -26q19 -5 53.5 -14.5t47 -13 t37 -12t46 -17.5t50.5 -23q68 -35 106 -70q41 -41 68.5 -103.5t27.5 -135.5q0 -173 -135 -287q-137 -113 -379 -113q-289 0 -507 170z" />
<glyph unicode="T" horiz-adv-x="1208" d="M59 1362v84h1090v-84h-500v-1362h-90v1362h-500z" />
<glyph unicode="U" horiz-adv-x="1501" d="M180 578v868h90v-858q0 -537 480 -537q479 0 479 537v858h90v-868q0 -304 -150 -457q-151 -154 -419 -154q-269 0 -420 154q-150 153 -150 457z" />
<glyph unicode="V" horiz-adv-x="1294" d="M41 1446h100l508 -1340l506 1340h96l-551 -1446h-102z" />
<glyph unicode="W" horiz-adv-x="1814" d="M51 1446h94l353 -1309l368 1198h86l367 -1204l350 1315h94l-393 -1446h-94l-367 1217l-368 -1217h-92z" />
<glyph unicode="X" horiz-adv-x="1218" d="M45 0l506 745l-471 701h110l422 -633l424 633h105l-473 -696l506 -750h-109l-459 680l-454 -680h-107z" />
<glyph unicode="Y" horiz-adv-x="1101" d="M25 1446h100l426 -780l426 780h98l-481 -868v-578h-88v578z" />
<glyph unicode="Z" horiz-adv-x="1230" d="M96 0v72l908 1292h-889v82h1003v-76l-903 -1286h918v-84h-1037z" />
<glyph unicode="[" horiz-adv-x="667" d="M195 -489v2043h391v-77h-305v-1889h305v-77h-391z" />
<glyph unicode="\" horiz-adv-x="942" d="M131 1536h86l655 -1642h-86z" />
<glyph unicode="]" horiz-adv-x="653" d="M109 -412h305v1889h-305v77h391v-2043h-391v77z" />
<glyph unicode="^" horiz-adv-x="950" d="M86 756l350 690h74l350 -690h-88l-299 602l-299 -602h-88z" />
<glyph unicode="_" horiz-adv-x="923" d="M12 -168h897v-74h-897v74z" />
<glyph unicode="`" horiz-adv-x="989" d="M328 1532h106l123 -303h-70z" />
<glyph unicode="a" horiz-adv-x="1093" d="M90 301q0 182 131 258q128 76 326 76q155 0 313 -31v105q0 156 -89 234.5t-247 78.5q-175 0 -346 -98l-28 65q177 113 380 113q295 0 383 -223q20 -56 21 -62q2 -11 5 -38.5t3 -30.5q0 -7 1 -37.5t1 -36.5v-84v-590h-72l-4 135q-174 -168 -409 -168q-153 0 -260 88 q-109 89 -109 246zM178 303q0 -121 82.5 -189.5t210.5 -68.5q230 0 389 172v315q-146 33 -303 33q-379 0 -379 -262z" />
<glyph unicode="b" horiz-adv-x="1179" d="M168 0v1446h84v-643q49 140 151 219.5t232 79.5q202 0 328 -150q124 -148 124 -415q0 -268 -126 -418q-131 -152 -326 -152q-138 0 -240.5 76.5t-146.5 214.5l-2 -258h-78zM252 537q0 -232 97 -361t274 -129q173 0 277 130.5t104 359.5q0 233 -103 359t-278 126 q-165 0 -268 -129t-103 -356z" />
<glyph unicode="c" horiz-adv-x="1064" d="M92 535q0 241 146 407q145 160 356 160q239 0 389 -178l-49 -54q-134 152 -334 152q-182 0 -301 -137q-121 -139 -121 -353q0 -207 121 -346t297 -139q196 0 336 152l51 -52q-155 -180 -389 -180q-218 0 -358 162q-144 163 -144 406z" />
<glyph unicode="d" horiz-adv-x="1171" d="M92 537q0 264 127 415q126 150 328 150q129 0 231.5 -80.5t151.5 -222.5v647h82v-1446h-78v262q-44 -140 -146.5 -217.5t-240.5 -77.5q-198 0 -326 152q-129 150 -129 418zM178 537q0 -228 104 -359t273 -131q178 0 275.5 129t97.5 361q0 229 -102.5 357t-270.5 128 q-172 0 -274.5 -126.5t-102.5 -358.5z" />
<glyph unicode="e" horiz-adv-x="1122" d="M92 526q0 247 133 412q132 164 348 164q200 0 322 -137q121 -139 121 -336q0 -66 -19 -140h-817q11 -205 119.5 -324.5t286.5 -119.5q96 0 191.5 41t160.5 113l45 -56q-72 -83 -181 -129.5t-222 -46.5q-223 0 -355 156q-133 154 -133 403zM180 563h750q6 30 6 68 q0 167 -98 280q-103 115 -263 115q-164 0 -276 -127q-110 -128 -119 -336z" />
<glyph unicode="f" horiz-adv-x="655" d="M41 983v76h152v18q0 202 67 289q79 113 244 113q86 0 176 -23l-16 -72q-85 21 -152 21q-117 0 -176 -74q-60 -78 -60 -272h342v-76h-342v-983h-83v983h-152z" />
<glyph unicode="g" horiz-adv-x="1181" d="M92 532q0 265 129 418q128 152 322 152q290 0 391 -303v264h82v-1030q0 -238 -131 -381q-132 -144 -344 -144q-211 0 -391 136l32 67q162 -125 357 -125q179 0 286 123t107 328v233q-49 -145 -151 -224t-236 -79q-200 0 -326 150q-127 151 -127 415zM178 532 q0 -233 101.5 -359t275.5 -126q169 0 272 128.5t103 356.5q0 233 -98 361.5t-277 128.5q-169 0 -273 -131t-104 -359z" />
<glyph unicode="h" horiz-adv-x="1196" d="M188 0v1446h82v-557q160 213 389 213q177 0 279 -113.5t102 -310.5v-678h-86v657q0 175 -82 270t-225 95q-220 0 -375 -227v-795h-84z" />
<glyph unicode="i" horiz-adv-x="405" d="M158 1274v172h90v-172h-90zM160 0v1063h86v-1063h-86z" />
<glyph unicode="j" horiz-adv-x="413" d="M-55 -432q115 50 176 143q49 79 49 236v1116h84v-1112q0 -182 -64 -289q-76 -122 -219 -168zM170 1274v172h90v-172h-90z" />
<glyph unicode="k" horiz-adv-x="970" d="M160 0v1446h82v-977l569 594h111l-430 -447l466 -616h-106l-420 561l-190 -196v-365h-82z" />
<glyph unicode="l" horiz-adv-x="401" d="M160 0v1446h84v-1446h-84z" />
<glyph unicode="m" horiz-adv-x="1824" d="M160 0v1063h78l2 -178q150 217 352 217q239 0 328 -228q69 105 166 166.5t210 61.5q168 0 269.5 -118.5t101.5 -315.5v-668h-86v653q0 175 -79 272t-216 97q-100 0 -191.5 -62t-146.5 -161q8 -73 8 -113v-686h-86v662q0 175 -75 267.5t-213 92.5q-98 0 -186.5 -67 t-151.5 -169v-786h-84z" />
<glyph unicode="n" horiz-adv-x="1167" d="M160 0v1063h78l2 -189q156 228 389 228q177 0 278 -113.5t101 -310.5v-678h-86v657q0 174 -82 269.5t-224 95.5q-216 0 -372 -240v-782h-84z" />
<glyph unicode="o" horiz-adv-x="1173" d="M94 535q0 256 131 411q132 156 363 156q230 0 362 -156q131 -155 131 -411q0 -257 -131 -412q-132 -156 -362 -156q-231 0 -363 156q-131 155 -131 412zM180 537q0 -233 109 -363q108 -129 299 -129q192 0 299 131q108 129 108 361q0 231 -108 360q-109 127 -299 127 t-299 -127q-109 -130 -109 -360z" />
<glyph unicode="p" horiz-adv-x="1179" d="M168 -356v1419h78v-258q47 142 149.5 219.5t239.5 77.5q195 0 326 -152q126 -150 126 -418q0 -267 -124 -415q-126 -150 -328 -150q-129 0 -231.5 79t-151.5 218v-620h-84zM252 532q0 -227 103 -356t268 -129q175 0 276.5 125.5t101.5 359.5q0 229 -103 359.5t-275 130.5 q-177 0 -274 -129t-97 -361z" />
<glyph unicode="q" horiz-adv-x="1179" d="M92 532q0 268 129 418q128 152 326 152q137 0 238.5 -77t148.5 -218v256h78v-1419h-82v620q-49 -139 -151.5 -218t-231.5 -79q-202 0 -328 150q-127 151 -127 415zM178 532q0 -232 102.5 -358.5t274.5 -126.5q168 0 271.5 129t103.5 356q0 233 -98 361.5t-277 128.5 q-169 0 -273 -131t-104 -359z" />
<glyph unicode="r" horiz-adv-x="800" d="M170 0v1063h78l2 -197q135 221 342 221q94 0 166 -38l-27 -80q-81 35 -151 35q-195 0 -326 -230v-774h-84z" />
<glyph unicode="s" horiz-adv-x="972" d="M70 121l45 61q159 -135 360 -135q138 0 228 60.5t90 166.5q0 102 -99 154q-72 38 -223 86q-7 2 -17 4.5t-12 3.5q-83 26 -128.5 44.5t-96.5 51.5q-115 71 -115 201q0 122 101 202.5t278 80.5q215 0 383 -113l-35 -65q-159 102 -352 102q-137 0 -213 -55.5t-76 -143.5 q0 -89 69.5 -137.5t240.5 -95.5q201 -59 274 -111q111 -77 111 -202q0 -145 -115 -228q-118 -86 -291 -86q-236 0 -407 154z" />
<glyph unicode="t" horiz-adv-x="737" d="M31 983v76h151l4 311h78v-311h346v-76h-346v-635q0 -175 49 -239t152 -64q96 0 188 59l33 -63q-109 -74 -229 -74q-132 0 -203 80q-74 83 -74 285v651h-149z" />
<glyph unicode="u" horiz-adv-x="1165" d="M158 391v672h86v-651q0 -175 81 -270t224 -95q217 0 373 246v770h84v-1063h-78l-4 195q-156 -228 -387 -228q-177 0 -278 113.5t-101 310.5z" />
<glyph unicode="v" horiz-adv-x="997" d="M33 1063h96l371 -971l372 971h95l-420 -1063h-94z" />
<glyph unicode="w" d="M39 1063h92l305 -963l309 963h86l312 -963l305 963h90l-348 -1063h-96l-303 952l-306 -952h-98z" />
<glyph unicode="x" horiz-adv-x="933" d="M18 0l394 541l-383 522h104l336 -463l338 463h96l-379 -520l396 -543h-107l-348 483l-346 -483h-101z" />
<glyph unicode="y" horiz-adv-x="1153" d="M150 393v670h86v-647q0 -181 82 -275t221 -94q215 0 372 232v784h84v-1030q0 -236 -123 -377q-133 -148 -350 -148q-177 0 -342 103l31 70q148 -95 313 -95q185 0 293 129q98 119 98 318v145q-159 -211 -387 -211q-174 0 -276 113t-102 313z" />
<glyph unicode="z" horiz-adv-x="942" d="M66 0v63l679 924h-663v76h772v-57l-680 -930h703v-76h-811z" />
<glyph unicode="{" horiz-adv-x="733" d="M90 496v75q91 18 135 86q43 64 43 244v180q0 119 13 198.5t45 147.5q62 136 252 136h57v-76h-47q-90 0 -140 -40.5t-71 -119.5q-23 -95 -23 -248v-198q0 -292 -161 -344v-7q161 -52 161 -344v-198q0 -125 12.5 -204.5t49.5 -129.5q57 -74 172 -74h47v-76h-57 q-189 0 -252 138q-32 68 -45 147.5t-13 196.5v180q0 177 -43 244q-44 68 -135 86z" />
<glyph unicode="|" horiz-adv-x="598" d="M258 -344v2124h78v-2124h-78z" />
<glyph unicode="}" horiz-adv-x="731" d="M100 -420h47q137 0 185.5 93.5t48.5 314.5v198q0 292 162 344v7q-162 52 -162 344v198q0 220 -48.5 314t-185.5 94h-47v76h58q189 0 254 -136q55 -123 55 -346v-180q0 -180 43 -244q44 -68 137 -86v-75q-93 -18 -137 -86q-43 -67 -43 -244v-180q0 -91 -7 -158.5 t-26.5 -131.5t-53.5 -104t-89.5 -64t-132.5 -24h-58v76z" />
<glyph unicode="~" horiz-adv-x="1132" d="M150 612q95 203 247 203q35 2 74 -16.5t73 -46t66.5 -55t66.5 -46t62 -16.5q107 0 195 172l49 -39q-100 -207 -250 -207q-42 0 -81 18.5t-69.5 45.5t-59.5 54t-62.5 45.5t-67.5 18.5q-108 0 -194 -170z" />
<glyph unicode="&#xa1;" horiz-adv-x="567" d="M197 -123l14 819h72l14 -819v-248h-100v248zM197 907v168h100v-168h-100z" />
<glyph unicode="&#xa2;" horiz-adv-x="1064" d="M92 535q0 236 131 391q132 159 328 174v182h65v-180q226 -9 367 -178l-49 -54q-131 146 -318 152v-975q182 9 316 152l51 -52q-151 -171 -367 -180v-178h-65v180q-199 15 -330 176q-129 156 -129 390zM178 532q0 -195 107 -329q106 -136 266 -154v971q-161 -21 -266 -156 q-107 -134 -107 -332z" />
<glyph unicode="&#xa3;" horiz-adv-x="1132" d="M162 0v76q85 28 128.5 141.5t43.5 284.5v231h-117v72h117v244q0 185 87.5 291t237.5 106q191 0 285 -178l-63 -39q-82 143 -219 143q-112 0 -177 -84.5t-65 -230.5v-252h399v-72h-399v-252q0 -291 -123 -405h674v-76h-809z" />
<glyph unicode="&#xa4;" horiz-adv-x="1122" d="M205 465l92 98q-68 95 -68 211q0 113 68 213l-92 96l49 50l86 -99q95 86 219 86q129 0 221 -86l88 99l50 -50l-95 -98q68 -89 68 -211q0 -120 -68 -209l95 -100l-50 -47l-88 98q-92 -86 -221 -86q-127 0 -219 86l-86 -98zM303 774q0 -118 73.5 -198t182.5 -80 q110 0 185 80t75 198t-74 201q-77 80 -184 80q-111 0 -184.5 -80t-73.5 -201z" />
<glyph unicode="&#xa5;" horiz-adv-x="1132" d="M106 1401h101l360 -699l361 699h98l-375 -715h291v-74h-332v-204h332v-74h-332v-334h-88v334h-329v74h329v204h-329v74h288z" />
<glyph unicode="&#xa6;" horiz-adv-x="598" d="M258 -346v790h78v-790h-78zM258 987v791h78v-791h-78z" />
<glyph unicode="&#xa7;" horiz-adv-x="1089" d="M131 676q0 76 43.5 135t120.5 82q-94 76 -94 194q0 119 96 203q94 82 250 82q181 0 348 -112l-31 -66q-162 98 -317 98q-115 0 -191.5 -55.5t-76.5 -144.5q0 -70 43 -113q4 -4 14 -15t14 -15t13 -12.5t16 -13.5t18.5 -12.5t24.5 -15.5q10 -5 24 -13t23.5 -12.5t15.5 -7.5 q28 -16 74 -37q18 -8 42 -18.5t30 -13.5q81 -40 122 -64t91 -63q98 -80 98 -213q0 -76 -42.5 -137t-115.5 -85q90 -87 90 -202q0 -124 -98 -205.5t-252 -81.5q-177 0 -360 121l33 65q160 -106 327 -106q117 0 194 56t77 147q-8 70 -34 113t-89 83q-41 22 -74 43 q-8 3 -21 9.5t-33.5 16t-37.5 17.5q-26 11 -54.5 25t-33.5 16q-143 66 -215 142t-72 186zM303 682q-18 -62 14 -97t115 -67q20 -20 51 -47q52 -52 66 -68q79 -40 219 43q5 19 5.5 36t-5 31t-13.5 26.5t-20.5 23t-25.5 19.5t-30.5 17.5t-32.5 14.5t-34 13q-9 11 -41 46 t-43 48q-85 45 -225 -39z" />
<glyph unicode="&#xa8;" horiz-adv-x="776" d="M178 1311v116h109v-116h-109zM489 1311v116h109v-116h-109z" />
<glyph unicode="&#xa9;" horiz-adv-x="1640" d="M76 723q0 322 213 541q211 217 530 217t533 -217q213 -219 213 -541q0 -320 -213 -539q-214 -217 -533 -217t-530 217q-213 216 -213 539zM135 723q0 -296 197 -496q192 -198 487 -198t490 198q194 200 194 496q0 298 -194 498q-195 198 -490 198t-487 -198 q-197 -200 -197 -498zM469 725q0 185 106 297q104 113 254 113q167 0 275 -129l-41 -45q-91 108 -234 108q-126 0 -209 -94.5t-83 -249.5t83 -249.5t209 -94.5q143 0 234 108l41 -45q-114 -129 -275 -129q-150 0 -254 113q-106 112 -106 297z" />
<glyph unicode="&#xaa;" horiz-adv-x="690" d="M68 952q0 211 276 211q93 0 191 -16v63q0 90 -54.5 135.5t-148.5 45.5q-93 0 -201 -60l-20 53q109 68 229 68q156 0 221 -111q39 -56 39 -157v-418h-59l-2 78q-109 -103 -244 -103q-97 0 -162 57.5t-65 153.5zM133 954q0 -69 49 -109t121 -40q138 0 232 104v181 q-111 18 -181 18q-221 0 -221 -154z" />
<glyph unicode="&#xab;" horiz-adv-x="1028" d="M199 535l229 378h70l-211 -378l211 -377h-70zM512 535l229 378h68l-211 -378l211 -377h-68z" />
<glyph unicode="&#xac;" horiz-adv-x="1128" d="M195 676v78h696v-371h-78v293h-618z" />
<glyph unicode="&#xad;" horiz-adv-x="937" d="M139 610v78h660v-78h-660z" />
<glyph unicode="&#xae;" horiz-adv-x="993" d="M49 1030q0 192 127 322q126 129 322 129q195 0 321 -129q125 -128 125 -322q0 -193 -125 -321q-125 -131 -321 -131q-197 0 -322 131q-127 130 -127 321zM102 1030q0 -173 111 -287q109 -112 285 -112q173 0 284 114q109 115 109 285q0 172 -109 287q-110 113 -284 113 q-175 0 -285 -113q-111 -114 -111 -287zM348 795v479h174q68 0 109 -40t41 -104q0 -118 -105 -139l119 -196h-51l-117 194h-127v-194h-43zM391 1034h125q111 0 111 96q0 99 -107 99h-129v-195z" />
<glyph unicode="&#xaf;" horiz-adv-x="757" d="M113 1317v74h532v-74h-532z" />
<glyph unicode="&#xb0;" horiz-adv-x="667" d="M80 1180q0 109 74 186q70 76 180 76q109 0 182 -76q72 -78 72 -186q0 -107 -72 -185q-72 -75 -182 -75q-109 0 -180 77q-74 77 -74 183zM141 1180q0 -82 56 -139.5t137 -57.5q84 0 138 57t54 140t-54.5 140.5t-137.5 57.5q-81 0 -137 -58t-56 -140z" />
<glyph unicode="&#xb1;" horiz-adv-x="1134" d="M186 90v76h760v-76h-760zM186 676v78h338v350h78v-350h344v-78h-344v-350h-78v350h-338z" />
<glyph unicode="&#xb2;" horiz-adv-x="575" d="M61 1708q110 84 228 84q104 0 169.5 -61.5t65.5 -163.5q0 -110 -92 -199q-40 -38 -131 -117q-49 -40 -100 -106q-51 -67 -54 -135l394 2v-66h-467v41q0 97 57 180q32 46 100 109q8 7 64 55t67 58q91 85 91 172q0 73 -50.5 120.5t-126.5 47.5q-95 0 -190 -74z" />
<glyph unicode="&#xb3;" horiz-adv-x="532" d="M45 1018l31 51q88 -70 184 -70q78 0 126 48.5t48 123.5q0 79 -52 128t-138 49l-54 -2v61h52q73 0 125.5 47.5t52.5 118.5q0 67 -46 112.5t-118 45.5q-84 0 -166 -70l-31 47q101 84 205 84q97 0 162.5 -61.5t65.5 -153.5q0 -71 -41 -121.5t-107 -75.5q74 -25 119 -79 t45 -134q0 -99 -66 -165t-176 -66q-120 0 -221 82z" />
<glyph unicode="&#xb4;" horiz-adv-x="897" d="M356 1237l115 303h107l-150 -303h-72z" />
<glyph unicode="&#xb6;" horiz-adv-x="1052" d="M143 1116q0 145 83 237.5t229 92.5h483v-66h-123v-1536h-70v1536h-200v-1536h-68v942h-22q-148 0 -230 93.5t-82 236.5z" />
<glyph unicode="&#xb7;" horiz-adv-x="659" d="M274 457v164h107v-164h-107z" />
<glyph unicode="&#xb8;" horiz-adv-x="528" d="M86 -426l20 43q70 -43 136 -43q58 0 93.5 31.5t35.5 89.5q0 52 -41.5 86.5t-112.5 34.5h-41l-8 24l59 156l62 -8l-45 -125q91 0 143 -43q57 -48 57 -129q0 -75 -52.5 -124.5t-131.5 -49.5q-94 0 -174 57z" />
<glyph unicode="&#xb9;" horiz-adv-x="448" d="M59 1626l234 152h49l2 -830h-72v740l-186 -121z" />
<glyph unicode="&#xba;" horiz-adv-x="731" d="M74 1096q0 161 79.5 256.5t215.5 95.5t214.5 -95.5t78.5 -256.5q0 -160 -79 -256.5t-214 -96.5q-138 0 -216.5 96.5t-78.5 256.5zM139 1098q0 -135 62 -213t168 -78q105 0 166 78t61 213t-60.5 210.5t-166.5 75.5q-109 0 -169.5 -75.5t-60.5 -210.5z" />
<glyph unicode="&#xbb;" horiz-adv-x="1028" d="M219 158l211 377l-211 378h68l231 -378l-231 -377h-68zM530 158l211 377l-211 378h70l229 -378l-229 -377h-70z" />
<glyph unicode="&#xbc;" horiz-adv-x="1449" d="M55 1298l234 152h51v-768l195 2l2 -63h-267h-194v61h194l-2 678l-184 -121zM270 -18l959 1464h78l-959 -1464h-78zM846 254l379 549h65v-545h80v-57l-80 -2v-226h-65l-2 226h-375zM918 258h305v444z" />
<glyph unicode="&#xbd;" horiz-adv-x="1495" d="M55 1298l234 152h51v-768l195 2l2 -63h-461v61h194l-2 678l-184 -121zM254 -18l958 1464h78l-958 -1464h-78zM932 735q107 82 229 82q103 0 170.5 -63t67.5 -162q0 -108 -94 -199q-20 -19 -83.5 -75t-86.5 -78q-40 -40 -62 -68q-50 -67 -53 -135h393v-66h-465v43 q0 96 56 179q40 57 98 108q4 4 13.5 12t25 21t30.5 26q47 39 64 56q90 78 90 172q0 73 -50.5 120.5t-125.5 47.5q-96 0 -191 -74z" />
<glyph unicode="&#xbe;" horiz-adv-x="1427" d="M39 690l31 51q87 -69 182 -69q78 0 127 48.5t49 123.5q0 78 -53 127t-139 49l-52 -2l-2 61h54q73 0 124.5 47.5t51.5 118.5q0 67 -45 112.5t-117 45.5q-87 0 -166 -70l-31 47q101 84 205 84q97 0 161 -61.5t64 -153.5q0 -71 -40.5 -121.5t-106.5 -74.5q74 -25 119 -79 t45 -134q0 -99 -66 -165.5t-174 -66.5q-120 0 -221 82zM225 -18l957 1464h78l-959 -1464h-76zM823 199v55l379 549h66v-545h80v-57l-80 -2v-226h-68v226h-377zM895 258h305v444z" />
<glyph unicode="&#xbf;" horiz-adv-x="1024" d="M115 18q0 124 60.5 215.5t186.5 184.5q89 67 129.5 116.5t40.5 106.5v80h91v-78q0 -82 -48 -147t-149 -138q-114 -81 -169.5 -160t-55.5 -182q0 -136 94 -237q91 -98 231 -98q213 0 357 184l57 -55q-77 -99 -189.5 -154t-230.5 -55q-170 0 -287 120q-118 121 -118 297z M526 915v164h101v-164h-101z" />
<glyph unicode="&#xc0;" horiz-adv-x="1339" d="M49 0l574 1446h96l571 -1446h-100l-186 483h-670l-191 -483h-94zM365 567h610l-305 787zM483 1915h105l106 -303h-69z" />
<glyph unicode="&#xc1;" horiz-adv-x="1339" d="M49 0l574 1446h96l571 -1446h-100l-186 483h-670l-191 -483h-94zM365 567h610l-305 787zM633 1620l100 303h105l-131 -303h-74z" />
<glyph unicode="&#xc2;" horiz-adv-x="1339" d="M49 0l574 1446h96l571 -1446h-100l-186 483h-670l-191 -483h-94zM365 567h610l-305 787zM403 1571l224 282h84l223 -282h-88l-176 225l-178 -225h-89z" />
<glyph unicode="&#xc3;" horiz-adv-x="1339" d="M49 0l574 1446h96l571 -1446h-100l-186 483h-670l-191 -483h-94zM334 1673q17 119 71.5 179.5t131.5 60.5q34 3 75.5 -25t74 -63t70 -63t64.5 -25q113 0 140 168h61q-17 -117 -71.5 -177.5t-131.5 -60.5q-34 -3 -75.5 25t-74 63t-70 63t-64.5 25q-55 0 -91.5 -46 t-48.5 -124h-61zM365 567h610l-305 787z" />
<glyph unicode="&#xc4;" horiz-adv-x="1339" d="M49 0l574 1446h96l571 -1446h-100l-186 483h-670l-191 -483h-94zM365 567h610l-305 787zM457 1686v114h108v-114h-108zM768 1686v114h109v-114h-109z" />
<glyph unicode="&#xc5;" horiz-adv-x="1339" d="M49 0l574 1446h96l571 -1446h-100l-186 483h-670l-191 -483h-94zM365 567h610l-305 787zM489 1774q0 74 53 127t126 53q74 0 127 -53t53 -127q0 -73 -53 -126t-127 -53q-72 0 -125.5 53t-53.5 126zM549 1774q0 -51 35 -86q26 -27 62 -33.5t67 6.5t53 43.5t22 69.5 q0 53 -35 88.5t-85 35.5t-84.5 -35.5t-34.5 -88.5z" />
<glyph unicode="&#xc6;" horiz-adv-x="2039" d="M49 0l926 1446h934v-84h-811v-571h735v-84h-735v-623h813v-84h-901v489h-545l-311 -489h-105zM514 573h496v787z" />
<glyph unicode="&#xc7;" horiz-adv-x="1411" d="M143 723q0 339 187 547q185 209 471 209q298 0 497 -211l-55 -60q-181 187 -436 187q-253 0 -412 -187q-159 -188 -159 -485q0 -300 161 -485q159 -187 408 -187q263 0 438 187l53 -60q-96 -102 -226 -156.5t-271 -54.5l-35 -112q80 0 127 -41q49 -49 49 -129 q0 -75 -47 -124.5t-119 -49.5q-81 0 -153 57l18 43q58 -43 117 -43q51 0 81.5 31.5t30.5 89.5q0 51 -36.5 86t-96.5 35q-6 0 -20.5 -1.5t-16.5 -1.5l-6 27l43 135q-257 24 -426 232q-166 205 -166 522z" />
<glyph unicode="&#xc8;" horiz-adv-x="1314" d="M207 0v1446h958v-84h-868v-571h795v-84h-795v-623h870v-84h-960zM551 1915h104l107 -303h-70z" />
<glyph unicode="&#xc9;" horiz-adv-x="1314" d="M207 0v1446h958v-84h-868v-571h795v-84h-795v-623h870v-84h-960zM635 1620l100 303h105l-131 -303h-74z" />
<glyph unicode="&#xca;" horiz-adv-x="1314" d="M207 0v1446h958v-84h-868v-571h795v-84h-795v-623h870v-84h-960zM434 1571l223 282h84l224 -282h-88l-177 225l-178 -225h-88z" />
<glyph unicode="&#xcb;" horiz-adv-x="1314" d="M207 0v1446h958v-84h-868v-571h795v-84h-795v-623h870v-84h-960zM487 1686v114h109v-114h-109zM799 1686v114h108v-114h-108z" />
<glyph unicode="&#xcc;" horiz-adv-x="514" d="M84 1915h104l107 -303h-70zM211 0v1446h90v-1446h-90z" />
<glyph unicode="&#xcd;" horiz-adv-x="514" d="M211 0v1446h90v-1446h-90zM211 1620l100 303h105l-131 -303h-74z" />
<glyph unicode="&#xce;" horiz-adv-x="514" d="M-8 1571l223 282h84l223 -282h-88l-176 225l-178 -225h-88zM211 0v1446h90v-1446h-90z" />
<glyph unicode="&#xcf;" horiz-adv-x="514" d="M45 1686v114h109v-114h-109zM211 0v1446h90v-1446h-90zM356 1686v114h109v-114h-109z" />
<glyph unicode="&#xd0;" horiz-adv-x="1503" d="M63 696v72h144v678h444q338 0 525 -199q186 -198 186 -524t-186 -524q-187 -199 -525 -199h-444v696h-144zM297 82h358q284 0 451 170q164 170 164 471q0 298 -164 471q-167 170 -451 170h-358v-596h360v-72h-360v-614z" />
<glyph unicode="&#xd1;" horiz-adv-x="1540" d="M207 0v1446h92l944 -1311v1311h90v-1446h-92l-944 1315v-1315h-90zM422 1673q17 119 71.5 179.5t131.5 60.5q34 3 75.5 -25t74 -63t70 -63t64.5 -25q113 0 140 168h61q-17 -117 -71.5 -177.5t-131.5 -60.5q-34 -3 -75.5 25t-74 63t-70 63t-64.5 25q-55 0 -91.5 -46 t-48.5 -124h-61z" />
<glyph unicode="&#xd2;" d="M145 721q0 343 181 551q180 207 465 207q283 0 466 -207q181 -208 181 -551q0 -342 -178 -547q-183 -207 -469 -207q-287 0 -467 207q-179 206 -179 547zM238 721q0 -308 153 -490q149 -180 400 -180q249 0 401 180q154 180 154 490t-154 493q-153 181 -401 181 q-250 0 -400 -181q-153 -182 -153 -493zM629 1919h104l107 -303h-70z" />
<glyph unicode="&#xd3;" d="M145 721q0 343 181 551q180 207 465 207q283 0 466 -207q181 -208 181 -551q0 -342 -178 -547q-183 -207 -469 -207q-287 0 -467 207q-179 206 -179 547zM238 721q0 -308 153 -490q149 -180 400 -180q249 0 401 180q154 180 154 490t-154 493q-153 181 -401 181 q-250 0 -400 -181q-153 -182 -153 -493zM727 1620l100 303h105l-131 -303h-74z" />
<glyph unicode="&#xd4;" d="M145 721q0 343 181 551q180 207 465 207q283 0 466 -207q181 -208 181 -551q0 -342 -178 -547q-183 -207 -469 -207q-287 0 -467 207q-179 206 -179 547zM238 721q0 -308 153 -490q149 -180 400 -180q249 0 401 180q154 180 154 490t-154 493q-153 181 -401 181 q-250 0 -400 -181q-153 -182 -153 -493zM524 1571l224 282h83l224 -282h-88l-176 225l-179 -225h-88z" />
<glyph unicode="&#xd5;" d="M145 721q0 343 181 551q180 207 465 207q283 0 466 -207q181 -208 181 -551q0 -342 -178 -547q-183 -207 -469 -207q-287 0 -467 207q-179 206 -179 547zM238 721q0 -308 153 -490q149 -180 400 -180q249 0 401 180q154 180 154 490t-154 493q-153 181 -401 181 q-250 0 -400 -181q-153 -182 -153 -493zM455 1673q17 119 71 179.5t131 60.5q28 2 60.5 -16t61 -45t56.5 -54t56.5 -45t50.5 -16q112 0 139 168h62q-17 -117 -71.5 -177.5t-131.5 -60.5q-28 -2 -60.5 16t-61 45t-56.5 54t-56.5 45t-50.5 16q-55 0 -91 -46t-48 -124h-61z" />
<glyph unicode="&#xd6;" d="M145 721q0 343 181 551q180 207 465 207q283 0 466 -207q181 -208 181 -551q0 -342 -178 -547q-183 -207 -469 -207q-287 0 -467 207q-179 206 -179 547zM238 721q0 -308 153 -490q149 -180 400 -180q249 0 401 180q154 180 154 490t-154 493q-153 181 -401 181 q-250 0 -400 -181q-153 -182 -153 -493zM578 1686v114h108v-114h-108zM889 1686v114h108v-114h-108z" />
<glyph unicode="&#xd7;" horiz-adv-x="1134" d="M252 344l262 303l-262 301l53 56l262 -302l262 302l54 -56l-262 -301l262 -305l-54 -55l-262 303l-262 -301z" />
<glyph unicode="&#xd8;" d="M145 721q0 343 181 551q180 207 465 207q171 0 313 -80l72 137l61 -37l-74 -139q132 -99 203.5 -263t71.5 -376q0 -342 -178 -547q-183 -207 -469 -207q-171 0 -316 80l-63 -123l-62 35l68 127q-130 98 -201.5 262t-71.5 373zM233 721q0 -380 224 -561l610 1167 q-123 72 -276 72q-249 0 -402 -182q-156 -181 -156 -496zM514 119q123 -72 277 -72q251 0 403 180q154 183 154 494q0 381 -224 565z" />
<glyph unicode="&#xd9;" horiz-adv-x="1501" d="M180 578v868h90v-858q0 -537 480 -537q479 0 479 537v858h90v-868q0 -304 -150 -457q-151 -154 -419 -154q-269 0 -420 154q-150 153 -150 457zM559 1878h103l120 -307h-75z" />
<glyph unicode="&#xda;" horiz-adv-x="1501" d="M180 578v868h90v-858q0 -537 480 -537q479 0 479 537v858h90v-868q0 -304 -150 -457q-151 -154 -419 -154q-269 0 -420 154q-150 153 -150 457zM674 1620l100 303h105l-131 -303h-74z" />
<glyph unicode="&#xdb;" horiz-adv-x="1501" d="M180 578v868h90v-858q0 -537 480 -537q479 0 479 537v858h90v-868q0 -304 -150 -457q-151 -154 -419 -154q-269 0 -420 154q-150 153 -150 457zM483 1571l224 282h84l223 -282h-88l-176 225l-179 -225h-88z" />
<glyph unicode="&#xdc;" horiz-adv-x="1501" d="M180 578v868h90v-858q0 -537 480 -537q479 0 479 537v858h90v-868q0 -304 -150 -457q-151 -154 -419 -154q-269 0 -420 154q-150 153 -150 457zM537 1686v114h108v-114h-108zM848 1686v114h108v-114h-108z" />
<glyph unicode="&#xdd;" horiz-adv-x="1101" d="M25 1446h100l426 -780l426 780h98l-481 -868v-578h-88v578zM487 1620l101 303h104l-131 -303h-74z" />
<glyph unicode="&#xde;" horiz-adv-x="1333" d="M207 0v1446h90v-254h494q213 0 326.5 -117t113.5 -319q0 -209 -114 -325t-326 -116h-494v-315h-90zM297 399h496q170 0 259 92.5t89 264.5q0 174 -90.5 263t-257.5 89h-496v-709z" />
<glyph unicode="&#xdf;" horiz-adv-x="1153" d="M174 0v985q0 234 103.5 365t289.5 131q151 0 252 -90q96 -93 96 -234q0 -104 -77 -196q-22 -25 -67 -63.5t-71 -64.5t-22 -38q0 -23 28 -45t99 -58q60 -32 102 -59q168 -116 168 -299q0 -150 -108 -258q-109 -109 -299 -109q-156 0 -267 66l7 78q116 -64 256 -64 q139 0 231 80q92 77 92 207q0 145 -166 256q-9 6 -155 92q-30 20 -52 49t-22 57q0 39 41 80q9 9 46.5 43.5t45.5 42.5q57 57 81.5 103t24.5 102q0 111 -73 179.5t-185 68.5q-152 0 -233.5 -113t-81.5 -311v-983h-84z" />
<glyph unicode="&#xe0;" horiz-adv-x="1093" d="M90 301q0 182 131 258q128 76 326 76q155 0 313 -31v105q0 156 -89 234.5t-247 78.5q-175 0 -346 -98l-28 65q177 113 380 113q295 0 383 -223q20 -56 21 -62q2 -11 5 -38.5t3 -30.5q0 -7 1 -37.5t1 -36.5v-84v-590h-72l-4 135q-174 -168 -409 -168q-153 0 -260 88 q-109 89 -109 246zM178 303q0 -121 82.5 -189.5t210.5 -68.5q230 0 389 172v315q-146 33 -303 33q-379 0 -379 -262zM381 1532h106l123 -303h-71z" />
<glyph unicode="&#xe1;" horiz-adv-x="1093" d="M90 301q0 182 131 258q128 76 326 76q155 0 313 -31v105q0 156 -89 234.5t-247 78.5q-175 0 -346 -98l-28 65q177 113 380 113q295 0 383 -223q20 -56 21 -62q2 -11 5 -38.5t3 -30.5q0 -7 1 -37.5t1 -36.5v-84v-590h-72l-4 135q-174 -168 -409 -168q-153 0 -260 88 q-109 89 -109 246zM178 303q0 -121 82.5 -189.5t210.5 -68.5q230 0 389 172v315q-146 33 -303 33q-379 0 -379 -262zM479 1237l115 303h106l-149 -303h-72z" />
<glyph unicode="&#xe2;" horiz-adv-x="1093" d="M90 301q0 182 131 258q128 76 326 76q155 0 313 -31v105q0 156 -89 234.5t-247 78.5q-175 0 -346 -98l-28 65q177 113 380 113q295 0 383 -223q20 -56 21 -62q2 -11 5 -38.5t3 -30.5q0 -7 1 -37.5t1 -36.5v-84v-590h-72l-4 135q-174 -168 -409 -168q-153 0 -260 88 q-109 89 -109 246zM178 303q0 -121 82.5 -189.5t210.5 -68.5q230 0 389 172v315q-146 33 -303 33q-379 0 -379 -262zM281 1237l225 305h82l227 -305h-88l-180 250l-178 -250h-88z" />
<glyph unicode="&#xe3;" horiz-adv-x="1093" d="M90 301q0 182 131 258q128 76 326 76q155 0 313 -31v105q0 156 -89 234.5t-247 78.5q-175 0 -346 -98l-28 65q177 113 380 113q295 0 383 -223q20 -56 21 -62q2 -11 5 -38.5t3 -30.5q0 -7 1 -37.5t1 -36.5v-84v-590h-72l-4 135q-174 -168 -409 -168q-153 0 -260 88 q-109 89 -109 246zM178 303q0 -121 82.5 -189.5t210.5 -68.5q230 0 389 172v315q-146 33 -303 33q-379 0 -379 -262zM203 1290q17 119 71.5 179.5t131.5 60.5q34 3 75.5 -25t74 -63t70 -63t64.5 -25q112 0 139 168h62q-17 -117 -71.5 -177.5t-131.5 -60.5q-28 -2 -60.5 16 t-61 45t-56.5 54t-56.5 45t-50.5 16q-55 0 -91 -46t-48 -124h-61z" />
<glyph unicode="&#xe4;" horiz-adv-x="1093" d="M90 301q0 182 131 258q128 76 326 76q155 0 313 -31v105q0 156 -89 234.5t-247 78.5q-175 0 -346 -98l-28 65q177 113 380 113q295 0 383 -223q20 -56 21 -62q2 -11 5 -38.5t3 -30.5q0 -7 1 -37.5t1 -36.5v-84v-590h-72l-4 135q-174 -168 -409 -168q-153 0 -260 88 q-109 89 -109 246zM178 303q0 -121 82.5 -189.5t210.5 -68.5q230 0 389 172v315q-146 33 -303 33q-379 0 -379 -262zM336 1303v114h108v-114h-108zM647 1303v114h109v-114h-109z" />
<glyph unicode="&#xe5;" horiz-adv-x="1093" d="M90 301q0 182 131 258q128 76 326 76q155 0 313 -31v105q0 156 -89 234.5t-247 78.5q-175 0 -346 -98l-28 65q177 113 380 113q295 0 383 -223q20 -56 21 -62q2 -11 5 -38.5t3 -30.5q0 -7 1 -37.5t1 -36.5v-84v-590h-72l-4 135q-174 -168 -409 -168q-153 0 -260 88 q-109 89 -109 246zM178 303q0 -121 82.5 -189.5t210.5 -68.5q230 0 389 172v315q-146 33 -303 33q-379 0 -379 -262zM369 1391q0 75 52.5 127.5t125.5 52.5t126.5 -53.5t53.5 -126.5t-53 -126t-127 -53q-72 0 -125 53t-53 126zM428 1391q0 -51 35 -86q26 -27 62 -33.5 t67.5 6.5t53.5 43.5t22 69.5q0 53 -35.5 89t-85.5 36t-84.5 -35.5t-34.5 -89.5z" />
<glyph unicode="&#xe6;" horiz-adv-x="1873" d="M90 301q0 182 131 258q128 76 326 76q125 0 301 -29q12 53 12 109q0 153 -91 230t-247 77q-173 0 -344 -98l-28 65q177 113 380 113q152 0 256.5 -70.5t133.5 -202.5q132 273 409 273q194 0 316 -137t122 -342q0 -78 -16 -134h-821q11 -205 119.5 -324.5t287.5 -119.5 q99 0 195 41t158 113l45 -49q-72 -86 -182 -134.5t-222 -48.5q-278 0 -411 244q-139 -244 -461 -244q-153 0 -260 88q-109 89 -109 246zM178 303q0 -121 83 -190.5t210 -67.5q283 3 416 229q-43 116 -43 263q-152 28 -287 28q-379 0 -379 -262zM930 563h753q1 10 2 24.5 t2 24t1 15.5q0 168 -101 284q-103 115 -264 115q-167 0 -276 -127q-108 -126 -117 -336z" />
<glyph unicode="&#xe7;" horiz-adv-x="1064" d="M92 535q0 241 146 407q145 160 356 160q239 0 389 -178l-49 -54q-134 152 -334 152q-182 0 -301 -137q-121 -139 -121 -353q0 -207 121 -346t297 -139q196 0 336 152l51 -52q-149 -174 -379 -180l-37 -104q90 0 146 -41q55 -46 55 -129q0 -75 -52.5 -124.5t-131.5 -49.5 q-94 0 -174 57l20 43q70 -43 135 -43q58 0 93.5 31.5t35.5 89.5q0 52 -41 86.5t-112 34.5q-5 0 -22 -1t-19 -1l-8 26l49 127q-192 21 -322 181q-127 157 -127 385z" />
<glyph unicode="&#xe8;" horiz-adv-x="1122" d="M92 526q0 247 133 412q132 164 348 164q200 0 322 -137q121 -139 121 -336q0 -66 -19 -140h-817q11 -205 119.5 -324.5t286.5 -119.5q96 0 191.5 41t160.5 113l45 -56q-72 -83 -181 -129.5t-222 -46.5q-223 0 -355 156q-133 154 -133 403zM180 563h750q6 30 6 68 q0 167 -98 280q-103 115 -263 115q-164 0 -276 -127q-110 -128 -119 -336zM408 1532h106l123 -303h-72z" />
<glyph unicode="&#xe9;" horiz-adv-x="1122" d="M92 526q0 247 133 412q132 164 348 164q200 0 322 -137q121 -139 121 -336q0 -66 -19 -140h-817q11 -205 119.5 -324.5t286.5 -119.5q96 0 191.5 41t160.5 113l45 -56q-72 -83 -181 -129.5t-222 -46.5q-223 0 -355 156q-133 154 -133 403zM180 563h750q6 30 6 68 q0 167 -98 280q-103 115 -263 115q-164 0 -276 -127q-110 -128 -119 -336zM526 1237l115 303h107l-150 -303h-72z" />
<glyph unicode="&#xea;" horiz-adv-x="1122" d="M92 526q0 247 133 412q132 164 348 164q200 0 322 -137q121 -139 121 -336q0 -66 -19 -140h-817q11 -205 119.5 -324.5t286.5 -119.5q96 0 191.5 41t160.5 113l45 -56q-72 -83 -181 -129.5t-222 -46.5q-223 0 -355 156q-133 154 -133 403zM180 563h750q6 30 6 68 q0 167 -98 280q-103 115 -263 115q-164 0 -276 -127q-110 -128 -119 -336zM307 1237l225 305h82l228 -305h-88l-181 250l-178 -250h-88z" />
<glyph unicode="&#xeb;" horiz-adv-x="1122" d="M92 526q0 247 133 412q132 164 348 164q200 0 322 -137q121 -139 121 -336q0 -66 -19 -140h-817q11 -205 119.5 -324.5t286.5 -119.5q96 0 191.5 41t160.5 113l45 -56q-72 -83 -181 -129.5t-222 -46.5q-223 0 -355 156q-133 154 -133 403zM180 563h750q6 30 6 68 q0 167 -98 280q-103 115 -263 115q-164 0 -276 -127q-110 -128 -119 -336zM362 1303v114h109v-114h-109zM674 1303v114h108v-114h-108z" />
<glyph unicode="&#xec;" horiz-adv-x="405" d="M6 1532h107l123 -303h-72zM160 0v1063h86v-1063h-86z" />
<glyph unicode="&#xed;" horiz-adv-x="405" d="M160 0v1063h86v-1063h-86zM172 1237l115 303h106l-149 -303h-72z" />
<glyph unicode="&#xee;" horiz-adv-x="405" d="M-63 1237l225 305h82l227 -305h-88l-180 250l-178 -250h-88zM160 0v1063h86v-1063h-86z" />
<glyph unicode="&#xef;" horiz-adv-x="405" d="M-8 1303v114h108v-114h-108zM160 0v1063h86v-1063h-86zM303 1303v114h109v-114h-109z" />
<glyph unicode="&#xf0;" horiz-adv-x="1101" d="M90 444q0 222 125 371q125 152 324 152q141 0 252 -105q110 -110 137 -264q15 178 -25 358q-41 185 -162 306l-243 -154l-31 63l215 138q-151 121 -363 145l13 74q255 -27 430 -176l215 133l29 -64l-189 -121q201 -213 201 -591q0 -323 -141 -531q-144 -211 -365 -211 q-179 0 -299 135q-123 132 -123 342zM178 446q0 -176 98 -286q94 -113 238 -113q158 0 266 135q109 136 109 310q0 165 -103 280q-104 113 -241 113q-166 0 -266 -127q-101 -128 -101 -312z" />
<glyph unicode="&#xf1;" horiz-adv-x="1167" d="M160 0v1063h78l2 -189q156 228 389 228q177 0 278 -113.5t101 -310.5v-678h-86v657q0 174 -82 269.5t-224 95.5q-216 0 -372 -240v-782h-84zM254 1290q17 119 71.5 179.5t131.5 60.5q34 3 75.5 -25t74 -63t70 -63t64.5 -25q113 0 140 168h61q-17 -117 -71.5 -177.5 t-131.5 -60.5q-34 -3 -75.5 25t-74 63t-70 63t-64.5 25q-55 0 -91.5 -46t-48.5 -124h-61z" />
<glyph unicode="&#xf2;" horiz-adv-x="1173" d="M94 535q0 256 131 411q132 156 363 156q230 0 362 -156q131 -155 131 -411q0 -257 -131 -412q-132 -156 -362 -156q-231 0 -363 156q-131 155 -131 412zM180 537q0 -233 109 -363q108 -129 299 -129q192 0 299 131q108 129 108 361q0 231 -108 360q-109 127 -299 127 t-299 -127q-109 -130 -109 -360zM414 1542h106l123 -303h-72z" />
<glyph unicode="&#xf3;" horiz-adv-x="1173" d="M94 535q0 256 131 411q132 156 363 156q230 0 362 -156q131 -155 131 -411q0 -257 -131 -412q-132 -156 -362 -156q-231 0 -363 156q-131 155 -131 412zM180 537q0 -233 109 -363q108 -129 299 -129q192 0 299 131q108 129 108 361q0 231 -108 360q-109 127 -299 127 t-299 -127q-109 -130 -109 -360zM543 1237l114 303h107l-150 -303h-71z" />
<glyph unicode="&#xf4;" horiz-adv-x="1173" d="M94 535q0 256 131 411q132 156 363 156q230 0 362 -156q131 -155 131 -411q0 -257 -131 -412q-132 -156 -362 -156q-231 0 -363 156q-131 155 -131 412zM180 537q0 -233 109 -363q108 -129 299 -129q192 0 299 131q108 129 108 361q0 231 -108 360q-109 127 -299 127 t-299 -127q-109 -130 -109 -360zM322 1237l225 305h82l227 -305h-88l-180 250l-178 -250h-88z" />
<glyph unicode="&#xf5;" horiz-adv-x="1173" d="M94 535q0 256 131 411q132 156 363 156q230 0 362 -156q131 -155 131 -411q0 -257 -131 -412q-132 -156 -362 -156q-231 0 -363 156q-131 155 -131 412zM180 537q0 -233 109 -363q108 -129 299 -129q192 0 299 131q108 129 108 361q0 231 -108 360q-109 127 -299 127 t-299 -127q-109 -130 -109 -360zM244 1290q17 119 71 179.5t131 60.5q28 2 60.5 -16t61 -45t56.5 -54t56.5 -45t50.5 -16q112 0 139 168h62q-17 -117 -71.5 -177.5t-131.5 -60.5q-28 -2 -60.5 16t-61 45t-56.5 54t-56.5 45t-50.5 16q-55 0 -91 -46t-48 -124h-61z" />
<glyph unicode="&#xf6;" horiz-adv-x="1173" d="M94 535q0 256 131 411q132 156 363 156q230 0 362 -156q131 -155 131 -411q0 -257 -131 -412q-132 -156 -362 -156q-231 0 -363 156q-131 155 -131 412zM180 537q0 -233 109 -363q108 -129 299 -129q192 0 299 131q108 129 108 361q0 231 -108 360q-109 127 -299 127 t-299 -127q-109 -130 -109 -360zM377 1303v114h108v-114h-108zM688 1303v114h109v-114h-109z" />
<glyph unicode="&#xf7;" horiz-adv-x="1132" d="M188 598v78h758v-78h-758zM522 205v184h82v-184h-82zM522 887v184h82v-184h-82z" />
<glyph unicode="&#xf8;" horiz-adv-x="1173" d="M94 535q0 256 131 411q132 156 363 156q141 0 256 -68l80 133l61 -45l-80 -131q176 -153 176 -456q0 -257 -131 -412q-132 -156 -362 -156q-145 0 -256 66l-82 -135l-62 45l82 135q-176 153 -176 457zM180 537q0 -257 133 -387l490 817q-89 57 -215 57 q-191 0 -299.5 -128t-108.5 -359zM373 102q89 -57 215 -57q191 0 299 130.5t108 361.5q0 258 -131 383z" />
<glyph unicode="&#xf9;" horiz-adv-x="1165" d="M158 391v672h86v-651q0 -175 81 -270t224 -95q217 0 373 246v770h84v-1063h-78l-4 195q-156 -228 -387 -228q-177 0 -278 113.5t-101 310.5zM410 1532h106l123 -303h-72z" />
<glyph unicode="&#xfa;" horiz-adv-x="1165" d="M158 391v672h86v-651q0 -175 81 -270t224 -95q217 0 373 246v770h84v-1063h-78l-4 195q-156 -228 -387 -228q-177 0 -278 113.5t-101 310.5zM524 1237l115 303h106l-149 -303h-72z" />
<glyph unicode="&#xfb;" horiz-adv-x="1165" d="M158 391v672h86v-651q0 -175 81 -270t224 -95q217 0 373 246v770h84v-1063h-78l-4 195q-156 -228 -387 -228q-177 0 -278 113.5t-101 310.5zM319 1237l226 305h82l227 -305h-88l-180 250l-178 -250h-89z" />
<glyph unicode="&#xfc;" horiz-adv-x="1165" d="M158 391v672h86v-651q0 -175 81 -270t224 -95q217 0 373 246v770h84v-1063h-78l-4 195q-156 -228 -387 -228q-177 0 -278 113.5t-101 310.5zM377 1303v114h108v-114h-108zM688 1303v114h109v-114h-109z" />
<glyph unicode="&#xfd;" horiz-adv-x="1153" d="M150 393v670h86v-647q0 -181 82 -275t221 -94q215 0 372 232v784h84v-1030q0 -236 -123 -377q-133 -148 -350 -148q-177 0 -342 103l31 70q148 -95 313 -95q185 0 293 129q98 119 98 318v145q-159 -211 -387 -211q-174 0 -276 113t-102 313zM524 1237l115 303h106 l-149 -303h-72z" />
<glyph unicode="&#xfe;" horiz-adv-x="1181" d="M168 -356v1802h84v-649q47 145 149 225t234 80q204 0 330 -150q125 -149 125 -415q0 -268 -129 -418q-131 -152 -326 -152q-140 0 -239.5 76.5t-143.5 218.5v-618h-84zM254 537q0 -233 96.5 -361.5t274.5 -128.5q170 0 274.5 131t104.5 359q0 233 -102.5 359t-276.5 126 q-168 0 -269.5 -128t-101.5 -357z" />
<glyph unicode="&#xff;" horiz-adv-x="1153" d="M150 393v670h86v-647q0 -181 82 -275t221 -94q215 0 372 232v784h84v-1030q0 -236 -123 -377q-133 -148 -350 -148q-177 0 -342 103l31 70q148 -95 313 -95q185 0 293 129q98 119 98 318v145q-159 -211 -387 -211q-174 0 -276 113t-102 313zM362 1303v114h109v-114h-109z M674 1303v114h108v-114h-108z" />
<glyph unicode="&#x152;" horiz-adv-x="2119" d="M147 723q0 325 187 524q184 199 522 199h1122v-84h-809v-571h736v-84h-736v-623h811v-84h-1124q-338 0 -522 199q-187 199 -187 524zM240 723q0 -304 166 -473q165 -168 434 -168h239v1282h-239q-283 0 -441 -174q-159 -175 -159 -467z" />
<glyph unicode="&#x153;" horiz-adv-x="1943" d="M94 535q0 251 125 409q128 158 344 158q163 0 274 -92t154 -258q45 160 158.5 255t265.5 95q186 0 305 -137t119 -342q0 -87 -18 -134h-789q11 -205 115 -324.5t276 -119.5q93 0 184.5 41t153.5 113l45 -52q-70 -84 -176 -132t-213 -48q-157 0 -270 91.5t-158 250.5 q-43 -161 -154 -251.5t-270 -90.5q-217 0 -344 160q-127 157 -127 408zM180 537q0 -225 101 -358.5t276 -133.5q186 0 288.5 128.5t102.5 363.5q0 232 -101 359.5t-284 127.5q-179 0 -281 -130t-102 -357zM1032 563h723q16 150 -57 297q-38 74 -115 120t-174 46 q-159 0 -262 -127q-106 -130 -115 -336z" />
<glyph unicode="&#x178;" horiz-adv-x="1101" d="M25 1446h100l426 -780l426 780h98l-481 -868v-578h-88v578zM338 1686v114h108v-114h-108zM649 1686v114h109v-114h-109z" />
<glyph unicode="&#x2c6;" horiz-adv-x="1007" d="M238 1237l225 305h82l227 -305h-88l-180 250l-178 -250h-88z" />
<glyph unicode="&#x2dc;" horiz-adv-x="921" d="M117 1290q17 119 71 179.5t131 60.5q28 2 60.5 -16t61 -45t56.5 -54t56.5 -45t50.5 -16q112 0 139 168h62q-17 -117 -71.5 -177.5t-131.5 -60.5q-28 -2 -60.5 16t-61 45t-56.5 54t-56.5 45t-50.5 16q-55 0 -91 -46t-48 -124h-61z" />
<glyph unicode="&#x2000;" horiz-adv-x="977" />
<glyph unicode="&#x2001;" horiz-adv-x="1954" />
<glyph unicode="&#x2002;" horiz-adv-x="977" />
<glyph unicode="&#x2003;" horiz-adv-x="1954" />
<glyph unicode="&#x2004;" horiz-adv-x="651" />
<glyph unicode="&#x2005;" horiz-adv-x="488" />
<glyph unicode="&#x2006;" horiz-adv-x="325" />
<glyph unicode="&#x2007;" horiz-adv-x="325" />
<glyph unicode="&#x2008;" horiz-adv-x="244" />
<glyph unicode="&#x2009;" horiz-adv-x="390" />
<glyph unicode="&#x200a;" horiz-adv-x="108" />
<glyph unicode="&#x2010;" horiz-adv-x="937" d="M139 610v78h660v-78h-660z" />
<glyph unicode="&#x2011;" horiz-adv-x="937" d="M139 610v78h660v-78h-660z" />
<glyph unicode="&#x2012;" horiz-adv-x="937" d="M139 610v78h660v-78h-660z" />
<glyph unicode="&#x2013;" horiz-adv-x="1357" d="M141 608v82h1073v-82h-1073z" />
<glyph unicode="&#x2014;" horiz-adv-x="1724" d="M125 608v82h1466v-82h-1466z" />
<glyph unicode="&#x2018;" horiz-adv-x="452" d="M172 1012v143q0 105 25 172.5t88 130.5l34 -47q-78 -93 -81 -219h34v-180h-100z" />
<glyph unicode="&#x2019;" horiz-adv-x="346" d="M133 1047q79 91 82 219h-37v180h105v-143q0 -104 -26 -172.5t-89 -131.5z" />
<glyph unicode="&#x201a;" horiz-adv-x="491" d="M172 -219q79 94 82 219h-37v180h102v-143q0 -105 -24.5 -172.5t-87.5 -130.5z" />
<glyph unicode="&#x201c;" horiz-adv-x="733" d="M172 1012v145q0 103 25 170.5t88 130.5l34 -47q-78 -93 -81 -219h34v-180h-100zM453 1012v145q0 104 25 171.5t87 129.5l35 -47q-79 -91 -82 -219h37v-180h-102z" />
<glyph unicode="&#x201d;" horiz-adv-x="733" d="M133 1047q79 91 82 219h-37v180h105v-143q0 -104 -26 -172.5t-89 -131.5zM414 1047q79 94 82 219h-37v180h102v-143q0 -105 -25 -173.5t-87 -130.5z" />
<glyph unicode="&#x201e;" horiz-adv-x="770" d="M172 -219q79 94 82 219h-37v180h102v-143q0 -105 -24.5 -172.5t-87.5 -130.5zM453 -219q76 94 79 219h-34v180h102v-143q0 -106 -25 -173.5t-90 -129.5z" />
<glyph unicode="&#x2022;" horiz-adv-x="878" d="M258 713q0 75 52 126.5t126 51.5q78 0 130 -51.5t52 -126.5t-53.5 -128t-128.5 -53q-74 0 -126 53t-52 128z" />
<glyph unicode="&#x2026;" horiz-adv-x="1374" d="M211 0v166h102v-166h-102zM645 0v166h103v-166h-103zM1079 0v166h101v-166h-101z" />
<glyph unicode="&#x202f;" horiz-adv-x="390" />
<glyph unicode="&#x2039;" horiz-adv-x="708" d="M195 535l229 378h70l-211 -378l211 -377h-70z" />
<glyph unicode="&#x203a;" horiz-adv-x="708" d="M215 158l211 377l-211 378h68l231 -378l-231 -377h-68z" />
<glyph unicode="&#x205f;" horiz-adv-x="488" />
<glyph unicode="&#x20ac;" horiz-adv-x="1134" d="M106 500l15 69h112q-6 61 -6 129q0 64 6 129h-118l14 68h113q37 255 168 397t338 142q144 0 280 -80l-33 -64q-113 64 -243 64q-176 0 -282.5 -119.5t-139.5 -339.5h581l-14 -68h-575q-13 -129 0 -258h552l-14 -69h-528q30 -214 137.5 -333.5t282.5 -119.5q127 0 243 64 l33 -64q-130 -80 -283 -80q-209 0 -338.5 143t-162.5 390h-138z" />
<glyph unicode="&#x2122;" horiz-adv-x="1445" d="M66 1384v62h483v-62h-211v-596h-64v596h-208zM618 793v653h76l264 -569l263 569h75v-653h-61v542l-252 -542h-49l-252 544v-544h-64z" />
<glyph unicode="&#x25fc;" horiz-adv-x="1064" d="M0 0v1065h1065v-1065h-1065z" />
<glyph unicode="&#xfb01;" horiz-adv-x="956" d="M49 983v76h150q0 118 13.5 185.5t55.5 121.5q79 113 246 113q94 0 203 -31l-17 -70q-99 27 -178 27q-119 0 -178 -74q-61 -73 -61 -272h505v-1059h-83v983h-422v-983h-84v983h-150z" />
<glyph unicode="&#xfb02;" horiz-adv-x="978" d="M49 983v76h150q-3 213 67 307q79 113 244 113q79 0 160 -19l-17 -74q-78 19 -135 19q-117 0 -176 -74q-59 -77 -59 -272h342v-76h-342v-983h-84v983h-150zM727 0v1446h84v-1446h-84z" />
<glyph unicode="&#xfb03;" horiz-adv-x="1462" d="M49 983v76h150q0 118 13.5 185.5t55.5 121.5q79 113 244 113q67 0 154 -19l-15 -71q-62 16 -133 16q-115 0 -174 -74q-61 -73 -61 -272h424q-3 213 67 307q82 113 246 113q94 0 203 -31l-17 -70q-99 27 -178 27q-119 0 -178 -74q-59 -77 -59 -272h503v-1059h-84v983h-419 v-983h-84v983h-424v-983h-84v983h-150z" />
<glyph unicode="&#xfb04;" horiz-adv-x="1495" d="M49 983v76h150q0 118 13.5 185.5t55.5 121.5q79 113 244 113q67 0 154 -19l-15 -71q-66 16 -133 16q-115 0 -174 -74q-61 -73 -61 -272h430q-3 213 67 307q79 113 244 113q63 0 160 -19l-17 -71q-88 16 -135 16q-117 0 -176 -74q-59 -77 -59 -272h342v-76h-342v-983h-84 v983h-430v-983h-84v983h-150zM1241 0v1446h84v-1446h-84z" />
</font>
</defs>
</svg>
