<?xml version="1.0" encoding="iso-8859-1"?>
<!-- Generator: Adobe Illustrator 19.0.0, SVG Export Plug-In . SVG Version: 6.00 Build 0)  -->
<svg xmlns="http://www.w3.org/2000/svg" xmlns:xlink="http://www.w3.org/1999/xlink" version="1.1" id="Layer_1" x="0px" y="0px" viewBox="0 0 512 512" style="enable-background:new 0 0 512 512;" xml:space="preserve" width="512px" height="512px">
<g>
	<g>
		<path d="M453.708,186.943H288.512c0.569-3.022,0.869-6.105,0.869-9.245V76.216c0-27.432-22.317-49.748-49.748-49.748H49.737    C22.311,26.468,0,48.784,0,76.216v101.482c0,27.425,22.311,49.736,49.737,49.736h29.221l-1.577,36.738    c-0.142,3.315,1.577,6.432,4.457,8.079c1.367,0.782,2.886,1.171,4.405,1.171c1.679,0,3.356-0.477,4.819-1.424l68.856-44.565h8.724    c-1.802,5.611-2.786,11.585-2.786,17.786v122.676c0,32.134,26.143,58.278,58.278,58.278h25.178l55.514,56.695    c1.697,1.734,3.993,2.664,6.337,2.664c0.985,0,1.978-0.164,2.94-0.503c3.25-1.142,5.544-4.063,5.884-7.491l5.097-51.365h128.625    c32.143,0,58.292-26.144,58.292-58.278V245.22C512,213.085,485.85,186.943,453.708,186.943z M177.98,209.696h-20.683    c-1.71,0-3.383,0.494-4.819,1.424l-56.639,36.658l1.238-28.832c0.104-2.416-0.784-4.769-2.456-6.516    c-1.673-1.747-3.986-2.734-6.404-2.734H49.738c-17.645,0-32.001-14.354-32.001-31.998V76.216c0-17.651,14.356-32.01,32-32.01    h189.898c17.651,0,32.01,14.36,32.01,32.01v101.482c0,3.177-0.459,6.27-1.36,9.245h-46.152    C205.362,186.943,188.647,195.872,177.98,209.696z M494.264,367.895c0,22.354-18.193,40.541-40.555,40.541H317.05    c-4.559,0-8.376,3.456-8.826,7.994l-4.013,40.459l-44.834-45.788c-1.667-1.704-3.952-2.664-6.336-2.664h-28.906    c-22.354,0-40.541-18.187-40.541-40.541V245.22c0-22.354,18.187-40.54,40.541-40.54h229.575v-0.001    c22.362,0,40.555,18.186,40.555,40.54V367.895z" fill="#FFFFFF"/>
	</g>
</g>
<g>
	<g>
		<path d="M183.31,93.756c-1.206-19.413-16.755-34.962-36.168-36.167c-10.807-0.668-21.086,3.028-28.949,10.418    c-7.754,7.287-12.199,17.566-12.199,28.201c-0.001,4.9,3.968,8.87,8.868,8.87s8.869-3.971,8.869-8.869    c0-5.846,2.347-11.27,6.609-15.277c4.258-4.002,9.836-6.005,15.702-5.641c10.329,0.641,18.922,9.234,19.564,19.562    c0.484,7.802-3.346,15.177-9.997,19.249c-12.391,7.585-19.789,20.693-19.789,35.065c0,4.898,3.97,8.869,8.869,8.869    s8.869-3.971,8.869-8.869c0-8.149,4.229-15.601,11.312-19.937C177.135,121.723,184.202,108.129,183.31,93.756z" fill="#FFFFFF"/>
	</g>
</g>
<g>
	<g>
		<path d="M338.925,240.4c-4.899,0-8.869,3.971-8.869,8.869v75.063c0,4.898,3.971,8.869,8.869,8.869    c4.899,0,8.869-3.971,8.869-8.869v-75.063C347.793,244.371,343.824,240.4,338.925,240.4z" fill="#FFFFFF"/>
	</g>
</g>
<g>
	<g>
		<circle cx="338.916" cy="364.068" r="8.869" fill="#FFFFFF"/>
	</g>
</g>
<g>
	<g>
		<circle cx="144.679" cy="182.046" r="8.869" fill="#FFFFFF"/>
	</g>
</g>
<g>
</g>
<g>
</g>
<g>
</g>
<g>
</g>
<g>
</g>
<g>
</g>
<g>
</g>
<g>
</g>
<g>
</g>
<g>
</g>
<g>
</g>
<g>
</g>
<g>
</g>
<g>
</g>
<g>
</g>
</svg>
