<?xml version="1.0" encoding="iso-8859-1"?>
<!-- Generator: Adobe Illustrator 18.1.1, SVG Export Plug-In . SVG Version: 6.00 Build 0)  -->
<svg xmlns="http://www.w3.org/2000/svg" xmlns:xlink="http://www.w3.org/1999/xlink" version="1.1" id="Capa_1" x="0px" y="0px" viewBox="0 0 612.004 612.004" style="enable-background:new 0 0 612.004 612.004;" xml:space="preserve" width="512px" height="512px">
<g>
	<g>
		<g>
			<path d="M541.864,240.416H70.14c-14.03,0-25.398,11.368-25.398,25.398v320.792c0,14.03,11.368,25.398,25.398,25.398h471.724     c14.03,0,25.398-11.368,25.398-25.398V265.813C567.262,251.784,555.884,240.416,541.864,240.416z M497.713,291.211     L306.012,428.378L114.301,291.211H497.713z M95.538,561.207V340.249L291.231,480.27c4.429,3.159,9.6,4.744,14.781,4.744     s10.352-1.585,14.781-4.744l195.673-140.012v220.949L95.538,561.207L95.538,561.207z" fill="#898989"/>
			<path d="M468.587,131.064c20.206,0,40.423-7.69,55.793-23.081c3.972-3.972,3.972-10.393,0-14.365s-10.403-3.972-14.365,0     c-22.838,22.837-60.02,22.837-82.857,0c-8.473-8.462-13.136-19.729-13.136-31.706s4.663-23.234,13.136-31.706     c13.197-13.197,34.663-13.197,47.859,0c9.753,9.763,9.753,25.652,0,35.414c-6.807,6.796-18.652,6.807-25.459,0     c-4.826-4.826-4.826-12.668,0-17.494c3.068-3.068,8.036-3.078,11.124,0c3.972,3.972,10.393,3.972,14.365,0s3.972-10.403,0-14.365     c-10.982-10.982-28.852-10.992-39.854,0c-12.75,12.739-12.75,33.474,0,46.224c7.233,7.233,16.844,11.226,27.094,11.226     c10.24,0,19.861-3.992,27.094-11.226c17.677-17.677,17.677-46.457,0-64.144c-21.11-21.121-55.478-21.121-76.589,0     c-12.313,12.303-19.089,28.669-19.089,46.071s6.776,33.769,19.089,46.071C428.165,123.364,448.371,131.064,468.587,131.064z" fill="#898989"/>
			<path d="M305.992,234.158c11.216,0,20.318-9.102,20.318-20.318l0.01-148.301c0-11.216-9.102-20.318-20.318-20.318     c-11.226,0-20.318,9.102-20.318,20.318l-0.01,148.301C285.674,225.055,294.766,234.158,305.992,234.158z" fill="#898989"/>
			<path d="M335.667,230.247c3.627,2.641,7.812,3.911,11.967,3.911c6.268,0,12.455-2.885,16.427-8.341l43.826-60.03     c6.614-9.062,4.633-21.771-4.429-28.384c-9.092-6.614-21.791-4.643-28.395,4.429l-43.826,60.03     C324.624,210.924,326.605,223.633,335.667,230.247z" fill="#898989"/>
			<path d="M247.964,225.817c3.982,5.445,10.159,8.33,16.427,8.33c4.155,0,8.351-1.27,11.967-3.911     c9.062-6.614,11.043-19.333,4.429-28.394l-43.846-60.03c-6.614-9.062-19.333-11.043-28.394-4.429s-11.043,19.333-4.429,28.394     L247.964,225.817z" fill="#898989"/>
			<path d="M122.54,190.413l-6.989,22.695c-0.569,1.829-0.061,3.81,1.321,5.14c1.371,1.341,3.393,1.768,5.181,1.158l22.472-7.69     l18.347,12.892c0.863,0.61,4.175,1.707,4.226,1.707c2.804,0,4.663-0.752,4.866-6.583l-0.376-22.319l19.008-14.253     c1.524-1.148,2.286-3.048,1.951-4.937c-0.325-1.879-1.686-3.424-3.515-3.982l-22.705-6.979l-7.701-22.472     c-0.62-1.808-2.194-3.109-4.084-3.383c-1.879-0.274-3.769,0.549-4.866,2.103l-13.664,19.434L112.26,163.3     c-1.91,0.03-3.637,1.128-4.48,2.845s-0.64,3.759,0.508,5.293L122.54,190.413z" fill="#898989"/>
		</g>
	</g>
	<g>
	</g>
	<g>
	</g>
	<g>
	</g>
	<g>
	</g>
	<g>
	</g>
	<g>
	</g>
	<g>
	</g>
	<g>
	</g>
	<g>
	</g>
	<g>
	</g>
	<g>
	</g>
	<g>
	</g>
	<g>
	</g>
	<g>
	</g>
	<g>
	</g>
</g>
<g>
</g>
<g>
</g>
<g>
</g>
<g>
</g>
<g>
</g>
<g>
</g>
<g>
</g>
<g>
</g>
<g>
</g>
<g>
</g>
<g>
</g>
<g>
</g>
<g>
</g>
<g>
</g>
<g>
</g>
</svg>
