<?xml version="1.0" encoding="iso-8859-1"?>
<!-- Generator: Adobe Illustrator 18.1.1, SVG Export Plug-In . SVG Version: 6.00 Build 0)  -->
<svg xmlns="http://www.w3.org/2000/svg" xmlns:xlink="http://www.w3.org/1999/xlink" version="1.1" id="Capa_1" x="0px" y="0px" viewBox="0 0 347.334 347.334" style="enable-background:new 0 0 347.334 347.334;" xml:space="preserve" width="512px" height="512px">
<path d="M337.892,347.334c-3.176,0-6.181-1.904-7.431-5.034l-19.959-49.96c-10.254-25.266-22.047-38.02-38.459-41.012l-4.17,19.905  l5.77,51.905c0.302,2.72-0.807,5.406-2.94,7.12l-12.873,10.344c-1.421,1.142-3.188,1.764-5.011,1.764h-4.568  c-1.822,0-3.59-0.622-5.011-1.764l-12.875-10.344c-2.134-1.714-3.243-4.4-2.94-7.12l5.771-51.905l-4.171-19.904  c-16.411,2.992-28.205,15.751-38.475,41.052l-20.271,49.959c-1.661,4.093-6.325,6.066-10.421,4.405  c-4.094-1.661-6.066-6.327-4.405-10.421l20.271-49.96c8.793-21.663,24.391-50.285,58.731-51.681  c0.304-0.035,0.611-0.053,0.921-0.053h30.316c0.31,0,0.617,0.018,0.921,0.053c34.344,1.396,49.94,30.019,58.731,51.68l19.975,50.001  c1.64,4.103-0.357,8.758-4.461,10.396C339.885,347.149,338.88,347.334,337.892,347.334z M243.812,320.538l6.723,5.401l6.721-5.4  l-4.635-41.693h-4.173L243.812,320.538z M247.785,262.846h5.498l2.56-12.215h-10.617L247.785,262.846z M9.441,347.334  c-1.002,0-2.02-0.189-3.005-0.589c-4.094-1.661-6.066-6.327-4.405-10.421l19.97-49.219c8.893-21.911,24.845-51.041,60.565-51.041  h26.489c19.255,0,35.103,8.562,47.104,25.449c0.198,0.278,1.107,1.517,2.211,3.02c3.823,5.211,4.839,6.607,5.174,7.113  c2.438,3.686,1.426,8.648-2.26,11.086c-3.671,2.428-8.606,1.434-11.055-2.214c-0.43-0.618-3.243-4.452-4.759-6.52  c-1.191-1.622-2.168-2.955-2.358-3.224c-5.535-7.789-11.722-13.039-18.922-15.948l-21.916,30.032  c-1.506,2.063-3.907,3.284-6.462,3.284s-4.956-1.221-6.462-3.284l-21.914-30.028c-12.489,5.063-22.083,17.279-30.609,38.29  l-19.97,49.219C15.595,345.448,12.601,347.334,9.441,347.334z M85.225,252.064l10.587,14.508l10.587-14.508H85.225z   M128.081,347.331H43c-4.418,0-8-3.582-8-8s3.582-8,8-8h85.081c4.418,0,8,3.582,8,8S132.499,347.331,128.081,347.331z   M286.914,289.102c-4.418,0-8-3.582-8-8v-1.001c0-4.418,3.582-8,8-8s8,3.582,8,8v1.001  C294.914,285.52,291.332,289.102,286.914,289.102z M95.812,224.323c-22.383,0-40.593-18.21-40.593-40.594  c0-18.437,12.354-34.041,29.218-38.971c0.082-0.026,0.164-0.052,0.248-0.075c2.672-0.761,5.419-1.243,8.2-1.442h0.002  c0.012-0.002,0.026-0.004,0.039-0.003c0.019-0.002,0.032-0.003,0.046-0.003c0.017-0.001,0.033-0.001,0.05-0.004  c0.017,0,0.028-0.001,0.044-0.003c0.021,0.001,0.035-0.002,0.051-0.003c0.014-0.004,0.027-0.002,0.041-0.003  c0.032,0.001,0.061-0.003,0.092-0.006l0,0c0.132-0.009,0.263-0.016,0.396-0.022l0.002-0.001c0.043-0.002,0.086-0.004,0.129-0.006  c0.014,0.001,0.056-0.004,0.087-0.005c0.011,0.001,0.026,0,0.041-0.002c0.017-0.002,0.033-0.001,0.05-0.002  c0.014-0.001,0.023-0.001,0.039-0.002c0.012,0,0.022-0.001,0.037-0.001c0.015-0.003,0.031-0.002,0.044-0.002  c0.015-0.002,0.027-0.004,0.046-0.002c0.011-0.002,0.021-0.003,0.035-0.002c0.031-0.002,0.063,0.006,0.093-0.004  c0.496-0.019,0.993-0.028,1.491-0.029c0.013,0.001,0.023,0,0.035,0s0.025,0,0.036,0c0.002,0,0.002,0,0.002,0c0.04,0,0.081,0,0.12,0  h0.001c0.021,0,0.044-0.001,0.063,0s0.047,0.002,0.064,0.001c0.023,0,0.048,0.001,0.069,0c0.008,0,0.017,0,0.025,0  c19.896,0.164,36.479,14.48,39.69,33.85c0.368,2.193,0.56,4.445,0.56,6.742C136.406,206.113,118.196,224.323,95.812,224.323z   M81.422,163.797c-6.177,4.472-10.203,11.741-10.203,19.933c0,13.562,11.032,24.594,24.593,24.594  c11.494,0,21.172-7.926,23.854-18.6C102.287,189.823,87.343,179.234,81.422,163.797z M96.822,159.157  c3.701,8.368,11.887,14.155,21.447,14.547C114.554,165.417,106.382,159.546,96.822,159.157z M250.533,222.472  c-22.653,0-41.083-18.431-41.083-41.085c0-22.653,18.43-41.083,41.083-41.083c2.71,0,5.361,0.264,7.927,0.768  c0.167,0.028,0.335,0.062,0.502,0.102c18.625,3.899,32.656,20.449,32.656,40.214C291.618,204.041,273.187,222.472,250.533,222.472z   M236.322,160.728c-6.562,4.528-10.872,12.101-10.872,20.659c0,13.832,11.252,25.085,25.083,25.085  c13.832,0,25.085-11.253,25.085-25.085c0-10.292-6.231-19.156-15.119-23.019c-3.356,4.322-7.551,7.945-12.369,10.649  c-3.853,2.164-8.729,0.793-10.892-3.06C236.309,164.305,236.032,162.463,236.322,160.728z M61.034,138.828  c-1.398,0-2.796-0.366-4.044-1.098c-2.45-1.436-3.956-4.062-3.956-6.902V58.745c0-14.011,11.399-25.409,25.41-25.409h28.382  c4.418,0,8,3.582,8,8s-3.582,8-8,8H78.444c-5.188,0-9.41,4.221-9.41,9.409v58.43l11.015-6.173c1.195-0.67,2.542-1.021,3.911-1.021  h69.418c4.418,0,8,3.582,8,8s-3.582,8-8,8H86.048l-21.104,11.826C63.729,138.488,62.381,138.828,61.034,138.828z M250.577,122.257  c-2.207,0-4.367-0.914-5.913-2.609l-24.626-27.003h-64.687c-14.01,0-25.408-11.398-25.408-25.408V25.409  C129.943,11.398,141.341,0,155.351,0h77.813c14.011,0,25.41,11.398,25.41,25.409v88.848c0,3.303-2.029,6.266-5.109,7.459  C252.525,122.081,251.546,122.257,250.577,122.257z M155.351,16c-5.188,0-9.408,4.221-9.408,9.409v41.827  c0,5.188,4.221,9.408,9.408,9.408h68.218c2.25,0,4.396,0.947,5.911,2.609l13.095,14.358V25.409c0-5.188-4.222-9.409-9.41-9.409  H155.351z M105.225,79.577H90.711c-4.418,0-8-3.582-8-8s3.582-8,8-8h14.514c4.418,0,8,3.582,8,8S109.643,79.577,105.225,79.577z   M219.194,46.708h-33.021c-4.418,0-8-3.582-8-8s3.582-8,8-8h33.021c4.418,0,8,3.582,8,8S223.612,46.708,219.194,46.708z" fill="#FFFFFF"/>
<g>
</g>
<g>
</g>
<g>
</g>
<g>
</g>
<g>
</g>
<g>
</g>
<g>
</g>
<g>
</g>
<g>
</g>
<g>
</g>
<g>
</g>
<g>
</g>
<g>
</g>
<g>
</g>
<g>
</g>
</svg>
