<?xml version="1.0" encoding="iso-8859-1"?>
<!-- Generator: Adobe Illustrator 16.0.0, SVG Export Plug-In . SVG Version: 6.00 Build 0)  -->
<!DOCTYPE svg PUBLIC "-//W3C//DTD SVG 1.1//EN" "http://www.w3.org/Graphics/SVG/1.1/DTD/svg11.dtd">
<svg xmlns="http://www.w3.org/2000/svg" xmlns:xlink="http://www.w3.org/1999/xlink" version="1.1" id="Capa_1" x="0px" y="0px" width="512px" height="512px" viewBox="0 0 260.218 260.219" style="enable-background:new 0 0 260.218 260.219;" xml:space="preserve">
<g>
	<g>
		<path d="M124.543,76.447H44.55c-1.49,0-2.7,1.21-2.7,2.7c0,1.489,1.21,2.7,2.7,2.7h79.984c1.493,0,2.7-1.21,2.7-2.7    C127.235,77.657,126.033,76.447,124.543,76.447z" fill="#898989"/>
		<path d="M124.543,92.647H44.55c-1.49,0-2.7,1.21-2.7,2.7s1.21,2.7,2.7,2.7h79.984c1.493,0,2.7-1.21,2.7-2.7    S126.033,92.647,124.543,92.647z" fill="#898989"/>
		<g>
			<path d="M199.146,143.662c8.396-4.946,13.822-16.627,13.822-29.75c0-17.679-9.841-32.065-21.933-32.065     c-12.098,0-21.938,14.386-21.938,32.065c0,13.171,5.442,24.867,13.869,29.793c0.707,0.411,1.191,1.123,1.318,1.93     c0.11,0.802-0.137,1.635-0.69,2.226l-14.519,15.704v14.803h43.875v-15.141l-14.417-15.398c-0.564-0.601-0.817-1.429-0.707-2.235     C197.965,144.802,198.44,144.084,199.146,143.662z" fill="#898989"/>
			<path d="M246.718,44.047H13.5c-7.441,0-13.5,6.06-13.5,13.5v145.125c0,7.441,6.059,13.5,13.5,13.5h233.218     c7.445,0,13.5-6.059,13.5-13.5V57.547C260.218,50.106,254.164,44.047,246.718,44.047z M124.543,179.047H44.55     c-1.49,0-2.7-1.213-2.7-2.699c0-1.487,1.21-2.7,2.7-2.7h79.984c1.493,0,2.7,1.213,2.7,2.7     C127.235,177.834,126.033,179.047,124.543,179.047z M124.543,162.848H44.55c-1.49,0-2.7-1.213-2.7-2.7s1.21-2.7,2.7-2.7h79.984     c1.493,0,2.7,1.213,2.7,2.7S126.033,162.848,124.543,162.848z M124.543,146.647H44.55c-1.49,0-2.7-1.213-2.7-2.7     s1.21-2.7,2.7-2.7h79.984c1.493,0,2.7,1.213,2.7,2.7S126.033,146.647,124.543,146.647z M124.543,130.447H44.55     c-1.49,0-2.7-1.21-2.7-2.7c0-1.489,1.21-2.7,2.7-2.7h79.984c1.493,0,2.7,1.211,2.7,2.7     C127.235,129.237,126.033,130.447,124.543,130.447z M124.543,114.247H44.55c-1.49,0-2.7-1.21-2.7-2.7c0-1.489,1.21-2.7,2.7-2.7     h79.984c1.493,0,2.7,1.21,2.7,2.7C127.235,113.037,126.033,114.247,124.543,114.247z M217.635,160.332     c0.464,0.501,0.732,1.16,0.732,1.846v18.899c0,1.493-1.207,2.7-2.7,2.7h-49.274c-1.487,0-2.7-1.207-2.7-2.7V162.51     c0-0.686,0.253-1.34,0.717-1.835l13.1-14.175c-8.475-6.582-13.816-18.964-13.816-32.598c0-20.656,12.261-37.465,27.343-37.465     c15.071,0,27.332,16.804,27.332,37.465c0,13.582-5.294,25.932-13.727,32.529L217.635,160.332z" fill="#898989"/>
		</g>
	</g>
</g>
<g>
</g>
<g>
</g>
<g>
</g>
<g>
</g>
<g>
</g>
<g>
</g>
<g>
</g>
<g>
</g>
<g>
</g>
<g>
</g>
<g>
</g>
<g>
</g>
<g>
</g>
<g>
</g>
<g>
</g>
</svg>
