<?xml version="1.0" encoding="iso-8859-1"?>
<!-- Generator: Adobe Illustrator 19.0.0, SVG Export Plug-In . SVG Version: 6.00 Build 0)  -->
<svg xmlns="http://www.w3.org/2000/svg" xmlns:xlink="http://www.w3.org/1999/xlink" version="1.1" id="Layer_1" x="0px" y="0px" viewBox="0 0 512 512" style="enable-background:new 0 0 512 512;" xml:space="preserve" width="512px" height="512px">
<g>
	<g>
		<path d="M442.723,128h-88.262V89.001c0-32.575-26.748-59.463-59.269-59.463h-78.966c-32.522,0-58.688,26.888-58.688,59.463V128    H68.695C30.656,128,0,159.307,0,197.313v216.609c0,38.006,30.656,68.54,68.695,68.54h374.029c38.039,0,69.277-30.534,69.277-68.54    V197.313C512,159.307,480.762,128,442.723,128z M177.231,89.001c0-21.716,17.332-39.77,38.995-39.77h78.966    c21.664,0,39.577,18.054,39.577,39.77V128H177.231V89.001z M492.308,413.922c0,27.148-22.404,48.847-49.584,48.847H68.695    c-27.18,0-49.002-21.699-49.002-48.847V197.313c0-27.148,21.822-49.62,49.002-49.62h98.399h177.231h98.399    c27.18,0,49.584,22.472,49.584,49.62V413.922z" fill="#FFFFFF"/>
	</g>
</g>
<g>
	<g>
		<path d="M344.324,265.846h-48.94v-48.845c0-5.437-4.7-10.232-10.137-10.232h-59.077c-5.437,0-9.555,4.795-9.555,10.232v48.845    h-49.522c-5.437,0-9.555,4.795-9.555,10.232v59.077c0,5.438,4.118,9.46,9.555,9.46h49.522v49.617c0,5.438,4.118,9.46,9.555,9.46    h59.077c5.438,0,10.137-4.023,10.137-9.46v-49.617h48.94c5.438,0,10.137-4.023,10.137-9.46v-59.077    C354.462,270.641,349.762,265.846,344.324,265.846z M334.769,324.923h-49.522c-5.437,0-9.555,4.795-9.555,10.232V384h-39.385    v-48.845c0-5.437-4.7-10.232-10.137-10.232h-48.94v-39.385h48.94c5.438,0,10.137-4.023,10.137-9.46v-49.616h39.385v49.616    c0,5.438,4.118,9.46,9.555,9.46h49.522V324.923z" fill="#FFFFFF"/>
	</g>
</g>
<g>
</g>
<g>
</g>
<g>
</g>
<g>
</g>
<g>
</g>
<g>
</g>
<g>
</g>
<g>
</g>
<g>
</g>
<g>
</g>
<g>
</g>
<g>
</g>
<g>
</g>
<g>
</g>
<g>
</g>
</svg>
