<?xml version="1.0" encoding="iso-8859-1"?>
<!-- Generator: Adobe Illustrator 18.0.0, SVG Export Plug-In . SVG Version: 6.00 Build 0)  -->
<!DOCTYPE svg PUBLIC "-//W3C//DTD SVG 1.1//EN" "http://www.w3.org/Graphics/SVG/1.1/DTD/svg11.dtd">
<svg xmlns="http://www.w3.org/2000/svg" xmlns:xlink="http://www.w3.org/1999/xlink" version="1.1" id="Capa_1" x="0px" y="0px" viewBox="0 0 248.151 248.151" style="enable-background:new 0 0 248.151 248.151;" xml:space="preserve" width="512px" height="512px">
<g>
	<path d="M215,49.885c0-2.264-1.765-4.117-4.027-4.133c-2.208,0.016-3.973,1.869-3.973,4.133v4.322h8V49.885z" fill="#898989"/>
	<path d="M211.211,106.669c-5.718,0-11.109-1.059-16.163-2.976l-46.761,30.753l58.852,55.852c3.004,2.853,3.137,7.6,0.286,10.604   c-1.475,1.553-3.451,2.336-5.435,2.336c-1.855,0-3.709-0.684-5.161-2.061l-61.378-58.27l-15.296,10.052   c-1.25,0.821-2.683,1.232-4.118,1.232c-1.435,0-2.868-0.411-4.118-1.232l-15.195-9.984l-60.789,57.705   c-1.45,1.377-3.308,2.06-5.162,2.06c-1.985,0-3.966-0.783-5.44-2.337c-2.852-3.004-2.729-7.751,0.276-10.602l58.24-55.286   L20.207,92.696c-3.462-2.274-4.425-6.925-2.149-10.386c2.274-3.462,6.924-4.427,10.386-2.149l87.595,57.555l64.882-42.632   c-9.495-8.424-15.495-20.705-15.495-34.367c0-0.506,0.023-1.008,0.038-1.51H16.354C7.506,59.207,0,66.38,0,75.229v132.957   c0,8.849,7.506,16.021,16.354,16.021h198.957c8.849,0,15.689-7.173,15.689-16.021v-106.08   C225,105.028,218.358,106.669,211.211,106.669z" fill="#898989"/>
	<path d="M211.378,97.488c20.277,0,36.773-16.496,36.773-36.771c0-20.276-16.496-36.772-36.773-36.772   c-20.277,0-36.773,16.496-36.773,36.772C174.604,80.992,191.101,97.488,211.378,97.488z M194,57.832   c0-2.209,1.63-3.625,3.839-3.625H199v-4.322c0-6.583,5.456-11.759,12.016-11.902c0.051-0.002,0.259-0.001,0.334,0.003   c6.555,0.208,11.65,5.357,11.65,11.899v4.322h1.919c1.061,0,2.119,0.232,2.869,0.983c0.75,0.75,1.212,1.579,1.212,2.64v17.783   c0,2.209-1.872,3.594-4.081,3.594h-27.08c-2.209,0-3.839-1.385-3.839-3.594V57.832z" fill="#898989"/>
</g>
<g>
</g>
<g>
</g>
<g>
</g>
<g>
</g>
<g>
</g>
<g>
</g>
<g>
</g>
<g>
</g>
<g>
</g>
<g>
</g>
<g>
</g>
<g>
</g>
<g>
</g>
<g>
</g>
<g>
</g>
</svg>
