<?xml version="1.0" ?><!DOCTYPE svg  PUBLIC '-//W3C//DTD SVG 1.1//EN'  'http://www.w3.org/Graphics/SVG/1.1/DTD/svg11.dtd'><svg enable-background="new 0 0 512 512" id="Layer_1" version="1.1" viewBox="0 0 512 512" xml:space="preserve" xmlns="http://www.w3.org/2000/svg" xmlns:xlink="http://www.w3.org/1999/xlink"><linearGradient gradientUnits="userSpaceOnUse" id="SVGID_1_" x1="256" x2="256" y1="512" y2="-9.094947e-013"><stop offset="0" style="stop-color:#F46B45"/><stop offset="1" style="stop-color:#EEA849"/></linearGradient><circle cx="256" cy="256" fill="url(#SVGID_1_)" r="256"/><path d="M378.4,164.6H133.6c-7.8,0-14.1,6.3-14.1,14.1v154.6c0,7.8,6.3,14.1,14.1,14.1h244.7  c7.8,0,14.1-6.3,14.1-14.1V178.7C392.5,170.9,386.1,164.6,378.4,164.6z M133.6,175.2h244.7c1.9,0,3.5,1.6,3.5,3.5v0.9L256,276  l-125.9-96.4v-0.9C130.1,176.8,131.7,175.2,133.6,175.2z M378.4,336.8H133.6c-1.9,0-3.5-1.6-3.5-3.5V193l122.7,93.9  c0.2,0.2,0.4,0.2,0.6,0.3c0.2,0.1,0.3,0.2,0.5,0.3c0.7,0.3,1.3,0.5,2,0.5h0h0c0.7,0,1.4-0.2,2-0.5c0.2-0.1,0.4-0.2,0.5-0.3  c0.2-0.1,0.4-0.2,0.6-0.3L381.9,193v140.3C381.9,335.2,380.3,336.8,378.4,336.8z" fill="#FFFFFF"/></svg>