<?xml version="1.0" encoding="iso-8859-1"?>
<!-- Generator: Adobe Illustrator 19.0.0, SVG Export Plug-In . SVG Version: 6.00 Build 0)  -->
<svg xmlns="http://www.w3.org/2000/svg" xmlns:xlink="http://www.w3.org/1999/xlink" version="1.1" id="Layer_1" x="0px" y="0px" viewBox="0 0 512 512" style="enable-background:new 0 0 512 512;" xml:space="preserve" width="512px" height="512px">
<g>
	<g>
		<path d="M478.072,111.035h-44.414c-5.11,0-9.253,4.142-9.253,9.253c0,5.111,4.143,9.253,9.253,9.253h44.414    c8.504,0,15.422,6.918,15.422,15.422V441.06c0,4.223-1.674,8.165-4.714,11.099c-2.886,2.786-6.645,4.307-10.645,4.323    c-0.021,0-0.042,0-0.062,0h-0.105c-0.154-0.001-0.31-0.005-0.466-0.01c-8.19-0.292-14.852-7.471-14.852-16.004V181.975    c0-18.707-15.219-33.928-33.928-33.928h-15.422V70.939c0-18.707-15.219-33.928-33.928-33.928H132.627    c-18.708,0-33.928,15.219-33.928,33.928v40.096H83.277c-18.708,0-33.928,15.219-33.928,33.928v22.207    c0,5.111,4.143,9.253,9.253,9.253s9.253-4.142,9.253-9.253v-22.207c0-8.504,6.918-15.422,15.422-15.422h15.422v55.518H33.928    C15.219,185.06,0,200.279,0,218.987V441.06c0,18.708,15.219,33.928,33.928,33.928h443.939c0.075,0,0.149,0.001,0.225,0.001    c8.837-0.001,17.155-3.353,23.541-9.515C508.317,459.022,512,450.351,512,441.06V144.963    C512,126.255,496.781,111.035,478.072,111.035z M117.205,70.939c0-8.504,6.918-15.422,15.422-15.422h246.747    c8.504,0,15.422,6.918,15.422,15.422v77.108h-54.262c-18.642,0-36.63,7.817-49.351,21.446    c-9.233,9.892-22.29,15.566-35.823,15.566H117.205V70.939z M33.928,456.48v0.001c-8.504,0-15.422-6.918-15.422-15.422V218.987    c0-8.504,6.918-15.422,15.422-15.422H255.36c18.643,0,36.63-7.817,49.351-21.446c9.234-9.893,22.291-15.566,35.823-15.566h88.19    c8.504,0,15.422,6.918,15.422,15.422v258.492c0,5.785,1.376,11.232,3.82,16.013H33.928z" fill="#FFFFFF"/>
	</g>
</g>
<g>
	<g>
		<path d="M354.699,74.023H157.301c-5.11,0-9.253,4.142-9.253,9.253c0,5.111,4.143,9.253,9.253,9.253h197.398    c5.11,0,9.253-4.142,9.253-9.253C363.952,78.165,359.809,74.023,354.699,74.023z" fill="#FFFFFF"/>
	</g>
</g>
<g>
	<g>
		<path d="M354.699,111.035H157.301c-5.11,0-9.253,4.142-9.253,9.253c0,5.111,4.143,9.253,9.253,9.253h197.398    c5.11,0,9.253-4.142,9.253-9.253C363.952,115.177,359.809,111.035,354.699,111.035z" fill="#FFFFFF"/>
	</g>
</g>
<g>
	<g>
		<path d="M259.084,148.048H157.301c-5.204,0-9.405,4.296-9.249,9.537c0.152,5.065,4.57,8.969,9.637,8.969h101.396    c5.11,0,9.253-4.143,9.253-9.253S264.194,148.048,259.084,148.048z" fill="#FFFFFF"/>
	</g>
</g>
<g>
	<g>
		<path d="M286.843,283.758h-9.253v-9.253c0-15.306-12.452-27.759-27.759-27.759h-12.337c-15.307,0-27.759,12.453-27.759,27.759    v9.253h-9.253c-15.307,0-27.759,12.453-27.759,27.759v12.337c0,15.306,12.452,27.759,27.759,27.759h9.253v9.253    c0,15.306,12.452,27.759,27.759,27.759h12.337c5.11,0,9.253-4.142,9.253-9.253c0-5.111-4.143-9.253-9.253-9.253h-12.337    c-5.103,0-9.253-4.15-9.253-9.253v-18.506c0-5.111-4.143-9.253-9.253-9.253h-18.506c-5.103,0-9.253-4.15-9.253-9.253v-12.337    c0-5.103,4.15-9.253,9.253-9.253h18.506c5.11,0,9.253-4.142,9.253-9.253v-18.506c0-5.103,4.15-9.253,9.253-9.253h12.337    c5.103,0,9.253,4.15,9.253,9.253v18.506c0,5.111,4.143,9.253,9.253,9.253h18.506c5.103,0,9.253,4.15,9.253,9.253v12.337    c0,5.103-4.15,9.253-9.253,9.253h-18.506c-5.11,0-9.253,4.142-9.253,9.253v18.506c0,5.111,4.143,9.253,9.253,9.253    c5.11,0,9.253-4.142,9.253-9.253v-9.253h9.253c15.307,0,27.759-12.453,27.759-27.759v-12.337    C314.602,296.21,302.15,283.758,286.843,283.758z" fill="#FFFFFF"/>
	</g>
</g>
<g>
</g>
<g>
</g>
<g>
</g>
<g>
</g>
<g>
</g>
<g>
</g>
<g>
</g>
<g>
</g>
<g>
</g>
<g>
</g>
<g>
</g>
<g>
</g>
<g>
</g>
<g>
</g>
<g>
</g>
</svg>
