<?xml version="1.0" encoding="iso-8859-1"?>
<!-- Generator: Adobe Illustrator 18.0.0, SVG Export Plug-In . SVG Version: 6.00 Build 0)  -->
<!DOCTYPE svg PUBLIC "-//W3C//DTD SVG 1.1//EN" "http://www.w3.org/Graphics/SVG/1.1/DTD/svg11.dtd">
<svg xmlns="http://www.w3.org/2000/svg" xmlns:xlink="http://www.w3.org/1999/xlink" version="1.1" id="Capa_1" x="0px" y="0px" viewBox="0 0 297 297" style="enable-background:new 0 0 297 297;" xml:space="preserve" width="512px" height="512px">
<g>
	<path d="M288.869,64.035l-39.475-39.474c-5.243-5.243-12.215-8.131-19.631-8.131c-7.415,0-14.387,2.888-19.63,8.131l-10.45,10.45   c-8.786,8.786-10.439,22.044-4.963,32.515l-82.271,65.817H10.068C4.508,133.344,0,137.852,0,143.412   C0,219.041,61.529,280.57,137.158,280.57s137.159-61.529,137.159-137.158c0-5.56-4.508-10.068-10.068-10.068h-30.054l11.708-14.635   c10.471,5.477,23.73,3.822,32.514-4.963l10.452-10.45c5.243-5.243,8.131-12.215,8.131-19.63   C297,76.249,294.112,69.278,288.869,64.035z M137.158,260.434c-61.135,0-111.471-47.123-116.594-106.955h233.188   C248.63,213.311,198.294,260.434,137.158,260.434z M274.632,89.057l-10.451,10.45c-0.001,0-0.001,0-0.001,0   c-2.972,2.972-7.811,2.975-10.784,0.001l-2.001-2.001c-2.025-2.024-4.828-3.092-7.676-2.933c-2.859,0.158-5.517,1.527-7.305,3.763   l-28.005,35.006h-63.728l70.411-56.329c2.237-1.789,3.605-4.446,3.763-7.306c0.158-2.86-0.909-5.651-2.935-7.677l-1.999-1.998   c-2.974-2.973-2.974-7.811,0-10.785l10.45-10.45c2.971-2.973,7.809-2.975,10.785,0l39.476,39.474   c1.439,1.44,2.233,3.355,2.233,5.392C276.864,85.702,276.071,87.617,274.632,89.057z" fill="#FFFFFF"/>
	<path d="M114.355,217.024h12.735v12.736c0,5.56,4.508,10.068,10.068,10.068c5.56,0,10.068-4.508,10.068-10.068v-12.736h12.736   c5.56,0,10.068-4.508,10.068-10.068s-4.508-10.068-10.068-10.068h-12.736v-12.735c0-5.56-4.508-10.068-10.068-10.068   c-5.56,0-10.068,4.508-10.068,10.068v12.735h-12.735c-5.56,0-10.068,4.508-10.068,10.068S108.795,217.024,114.355,217.024z" fill="#FFFFFF"/>
</g>
<g>
</g>
<g>
</g>
<g>
</g>
<g>
</g>
<g>
</g>
<g>
</g>
<g>
</g>
<g>
</g>
<g>
</g>
<g>
</g>
<g>
</g>
<g>
</g>
<g>
</g>
<g>
</g>
<g>
</g>
</svg>
