<?xml version="1.0" encoding="iso-8859-1"?>
<!-- Generator: Adobe Illustrator 18.0.0, SVG Export Plug-In . SVG Version: 6.00 Build 0)  -->
<!DOCTYPE svg PUBLIC "-//W3C//DTD SVG 1.1//EN" "http://www.w3.org/Graphics/SVG/1.1/DTD/svg11.dtd">
<svg xmlns="http://www.w3.org/2000/svg" xmlns:xlink="http://www.w3.org/1999/xlink" version="1.1" id="Capa_1" x="0px" y="0px" viewBox="0 0 245 245" style="enable-background:new 0 0 245 245;" xml:space="preserve" width="512px" height="512px">
<path d="M223.265,0H21.735v130.497h70.573l30.192,50.892l30.192-50.892h70.573V0z M208.265,115.497H144.15L122.5,151.99  l-21.65-36.493H36.735V15h171.529V115.497z M96.066,218.566c0,14.576,11.858,26.434,26.434,26.434  c14.576,0,26.434-11.858,26.434-26.434s-11.858-26.434-26.434-26.434C107.924,192.132,96.066,203.99,96.066,218.566z   M133.934,218.566c0,6.305-5.129,11.434-11.434,11.434c-6.305,0-11.434-5.129-11.434-11.434s5.129-11.434,11.434-11.434  C128.805,207.132,133.934,212.261,133.934,218.566z M38.554,218.566c0,14.576,11.858,26.434,26.434,26.434  s26.434-11.858,26.434-26.434s-11.858-26.434-26.434-26.434S38.554,203.99,38.554,218.566z M76.422,218.566  c0,6.305-5.129,11.434-11.434,11.434c-6.305,0-11.434-5.129-11.434-11.434s5.129-11.434,11.434-11.434  C71.293,207.132,76.422,212.261,76.422,218.566z M153.578,218.566c0,14.576,11.858,26.434,26.434,26.434  c14.576,0,26.434-11.858,26.434-26.434s-11.858-26.434-26.434-26.434C165.436,192.132,153.578,203.99,153.578,218.566z   M191.446,218.566c0,6.305-5.129,11.434-11.434,11.434s-11.434-5.129-11.434-11.434s5.129-11.434,11.434-11.434  S191.446,212.261,191.446,218.566z" fill="#FFFFFF"/>
<g>
</g>
<g>
</g>
<g>
</g>
<g>
</g>
<g>
</g>
<g>
</g>
<g>
</g>
<g>
</g>
<g>
</g>
<g>
</g>
<g>
</g>
<g>
</g>
<g>
</g>
<g>
</g>
<g>
</g>
</svg>
