<?xml version="1.0" encoding="iso-8859-1"?>
<!-- Generator: Adobe Illustrator 19.0.0, SVG Export Plug-In . SVG Version: 6.00 Build 0)  -->
<svg xmlns="http://www.w3.org/2000/svg" xmlns:xlink="http://www.w3.org/1999/xlink" version="1.1" id="Layer_1" x="0px" y="0px" viewBox="0 0 512 512" style="enable-background:new 0 0 512 512;" xml:space="preserve" width="512px" height="512px">
<g>
	<g>
		<path d="M403.234,395.844c-13.611-5.956-29.056-12.689-46.626-20.736l-0.794-0.358l-0.623,0.606    c-5.879,5.709-12.39,11.11-19.371,16.06l-1.792,1.263l1.988,0.93c22.067,10.257,41.182,18.662,57.353,25.737    c59.998,26.18,67.576,31.292,67.576,45.559c0,9.796-9.66,21.641-21.641,21.641H72.687c-11.981,0-21.641-11.844-21.641-21.641    c0-14.268,7.586-19.379,67.576-45.559c16.171-7.074,35.294-15.479,57.353-25.737l1.988-0.93l-1.792-1.263    c-6.972-4.949-13.491-10.359-19.371-16.06l-0.623-0.606l-0.794,0.358c-17.579,8.038-33.016,14.78-46.626,20.736    C48.239,422.263,25.6,432.154,25.6,464.913C25.6,489.557,48.043,512,72.687,512h366.626c24.644,0,47.087-22.443,47.087-47.087    C486.4,432.154,463.761,422.263,403.234,395.844z" fill="#27529e"/>
	</g>
</g>
<g>
	<g>
		<path d="M435.2,153.6h-25.6C409.6,68.77,340.83,0,256,0S102.4,68.77,102.4,153.6H76.8c-14.14,0-25.6,11.46-25.6,25.6V256    c0,14.14,11.46,25.6,25.6,25.6h25.6c7.56,0,14.174-3.422,18.867-8.627c0.777,1.101,1.468,2.219,2.389,3.285    C141.38,346.411,193.997,397.432,256,397.432c63.505,0,117.052-53.572,133.461-126.353c4.668,6.229,11.759,10.522,20.139,10.522    h25.6c14.14,0,25.6-11.46,25.6-25.6v-76.8C460.8,165.06,449.34,153.6,435.2,153.6z M102.4,256H76.8v-76.8h25.6V256z M256,371.985    c-41.412,0-77.611-29.21-97.374-72.559C188.962,312.627,228.727,320,256,320c7.074,0,12.8-5.726,12.8-12.8s-5.726-12.8-12.8-12.8    c-45.005,0-92.996-17.988-109.107-30.822c-2.654-12.527-4.19-25.651-4.19-39.262c0-81.425,50.833-147.669,113.297-147.669    s113.297,66.244,113.297,147.669S318.464,371.985,256,371.985z M383.693,156.655C362.53,94.729,313.267,51.2,256,51.2    c-57.267,0-106.53,43.529-127.693,105.455c-0.026-1.041-0.307-2.014-0.307-3.055c0-70.579,57.421-128,128-128s128,57.421,128,128    C384,154.641,383.718,155.614,383.693,156.655z M435.2,256h-25.6v-76.8h25.6V256z" fill="#27529e"/>
	</g>
</g>
<g>
</g>
<g>
</g>
<g>
</g>
<g>
</g>
<g>
</g>
<g>
</g>
<g>
</g>
<g>
</g>
<g>
</g>
<g>
</g>
<g>
</g>
<g>
</g>
<g>
</g>
<g>
</g>
<g>
</g>
</svg>
