<?xml version="1.0" encoding="iso-8859-1"?>
<!-- Generator: Adobe Illustrator 19.0.0, SVG Export Plug-In . SVG Version: 6.00 Build 0)  -->
<svg xmlns="http://www.w3.org/2000/svg" xmlns:xlink="http://www.w3.org/1999/xlink" version="1.1" id="Capa_1" x="0px" y="0px" viewBox="0 0 512 512" style="enable-background:new 0 0 512 512;" xml:space="preserve" width="512px" height="512px">
<g>
	<g>
		<path d="M442,27H70C31.402,27,0,58.402,0,97v240c0,38.598,31.402,70,70,70h101.5c5.522,0,10-4.478,10-10c0-5.522-4.478-10-10-10    H70c-27.57,0-50-22.43-50-50V97c0-27.57,22.43-50,50-50h372c27.57,0,50,22.43,50,50v240c0,27.57-22.43,50-50,50h-73.134    c-5.522,0-10,4.478-10,10v53.858l-60.929-60.929c-1.876-1.875-4.419-2.929-7.071-2.929H267c-5.522,0-10,4.478-10,10    c0,5.522,4.478,10,10,10h19.724l75.071,75.071c1.913,1.913,4.47,2.93,7.073,2.929c1.288,0,2.588-0.249,3.825-0.761    c3.736-1.548,6.173-5.194,6.173-9.239v-68H442c38.598,0,70-31.402,70-70V97C512,58.402,480.598,27,442,27z" fill="#474747"/>
	</g>
</g>
<g>
	<g>
		<path d="M222.269,389.93c-1.859-1.861-4.439-2.93-7.069-2.93c-2.631,0-5.209,1.07-7.07,2.93c-1.861,1.86-2.93,4.44-2.93,7.07    s1.07,5.21,2.93,7.069c1.86,1.861,4.439,2.931,7.07,2.931c2.63,0,5.21-1.07,7.069-2.931c1.861-1.859,2.931-4.439,2.931-7.069    S224.129,391.79,222.269,389.93z" fill="#474747"/>
	</g>
</g>
<g>
	<g>
		<path d="M452.509,108.396c-3.038-1.8-6.803-1.863-9.901-0.167l-97.195,53.248v-4.178c0-25.529-20.77-46.299-46.299-46.299H99.711    c-25.529,0-46.299,20.77-46.299,46.299v119.402c0,25.529,20.77,46.299,46.299,46.299h199.402c25.529,0,46.299-20.77,46.299-46.299    v-4.178l97.195,53.248c1.498,0.82,3.152,1.229,4.805,1.229c1.765,0,3.527-0.467,5.097-1.396c3.039-1.801,4.903-5.071,4.903-8.604    V117C457.412,113.468,455.548,110.197,452.509,108.396z M325.412,178.359v77.283v21.059c0,14.501-11.798,26.299-26.299,26.299    H99.711c-14.501,0-26.299-11.798-26.299-26.299V275h75.446c5.522,0,10-4.478,10-10c0-5.522-4.478-10-10-10H73.412v-97.701    C73.412,142.798,85.21,131,99.711,131h199.402c14.501,0,26.299,11.798,26.299,26.299V178.359z M437.412,300.119l-92-50.401    v-65.436l92-50.401V300.119z" fill="#474747"/>
	</g>
</g>
<g>
	<g>
		<path d="M183.624,255h-0.099c-5.522,0-9.95,4.478-9.95,10c0,5.522,4.527,10,10.049,10c5.522,0,10-4.478,10-10    C193.624,259.478,189.146,255,183.624,255z" fill="#474747"/>
	</g>
</g>
<g>
</g>
<g>
</g>
<g>
</g>
<g>
</g>
<g>
</g>
<g>
</g>
<g>
</g>
<g>
</g>
<g>
</g>
<g>
</g>
<g>
</g>
<g>
</g>
<g>
</g>
<g>
</g>
<g>
</g>
</svg>
